<?xml version="1.0" encoding="UTF-8"?>
<svg version="1.1" viewBox="0 0 1600 1408" width="544" height="479" xmlns="http://www.w3.org/2000/svg">
<path transform="translate(0)" d="m0 0h1600v1408h-1600z" fill="#FCFCFC"/>
<path transform="translate(870,180)" d="m0 0h34l25 3 24 5 22 7 15 6 15 8 13 8 8 6v2l5 2 10 10 2 4 5 5 8 14 5 13 3 14v19l-3 16-8 21-4 7v4l3-1 19-1h20l-1 11-11 65 10 1h41l31 8 210 59 6 2-2 12-16 64-18 71-11 45-1 3-10-2-52-10-19-4h-13l-33 6-3 19-3 22-4 35-3 23-3 26 8 1 24 6 23 3 68 8 5 1-1 13-2 12-2 18-2 21-3 20-2 15-2 24-4 31-2 20-1 4-2 22-4 29-1 14-1 3-1 14-2 13-2 16-1 14-1 3-1 13-1 3-1 13-2 8h-27l-213-14-52-1v32l-1 82-1 26 8-1 1 1v17h34v-15l9-134 1-2h21l34 2 192 12-7 55-7 58 52 4 43 4 16 2 10 2 25 2 3 1 3 5 3 2 6 1-3-4v-2l14 1 2 1v3h15l1 1h9l8 4 13 3 6 4 3 3-1 5-7 5-21 7-23 5-32 5-52 6-69 6-62 4-59 3-77 3-69 2-49 1h-292l-86-2-68-2-85-4-51-3-65-5-60-6-50-7-26-5-18-5-12-6-3-4 1-4 6-5 13-5 20-5h13l25-6 38-5 50-5h4l-2-14-6-77-2-26-1-2-1-22 2-3h3l-3-38-5-48-2-20-1-5-3-36-3-31-1-3-2-21-1-20-3-21-2-20-2-27-4-33-2-31-2-13-11-119-1-15-6-35-13-61-12-57-3-16h-2l-2-14-6-28v-2l47-1-2-10-6-53-6-58v-5l22-1 67-2 54-1 74-2 57-1 125-3 8-16 9-15 7-9 12-14 15-13 14-10 13-8 19-10 24-9 17-5 24-5 27-3z" fill="#FEC687"/>
<path transform="translate(325,760)" d="m0 0h359l6 11 3 6-1 41-2 36-1 32-1 16-2 41-1 10-1 26-1 13-1 25-1 10-1 29-1 9v8l-1 12-1 34-1 18-2 17h33v-148l1-112 1-66h266v2h3v2l4 2 4 4v41l-1 50-1 36v29l-2 159 44 1v1h-45v32l-1 82-1 26 8-1 1 1v17h34v-15l9-134 1-2h21l34 2 192 12-7 55-7 58 52 4 43 4 16 2 10 2 25 2 3 1 3 5 3 2 6 1-3-4v-2l14 1 2 1v3h15l1 1h9l8 4 13 3 6 4 3 3-1 5-7 5-21 7-23 5-32 5-52 6-69 6-62 4-59 3-77 3-69 2-49 1h-292l-86-2-68-2-85-4-51-3-65-5-60-6-50-7-26-5-18-5-12-6-3-4 1-4 6-5 13-5 20-5h13l25-6 38-5 50-5h4l-2-14-6-77-2-26-1-2-1-22 2-3 4 1v4h30l-4-59-2-25-1-21-1-9-1-27-2-19-2-35-2-23-1-23-1-7-1-29-2-18-2-35-2-31-2-25z" fill="#FDEADA"/>
<path transform="translate(272,636)" d="m0 0h792l157 30 43 8 56 11 10 2-1 6-10-2-52-10-19-4h-13l-33 6-3 19-3 22-4 35-3 23-3 26 8 1 24 6 23 3 68 8 5 1-1 13-2 12-2 18-2 21-3 20-2 15-2 24-4 31-2 20-1 4-2 22-4 29-1 14-1 3-1 14-2 13-2 16-1 14-1 3-1 13-1 3-1 13-2 8h-27l-213-14-7-1-44-1-1-1 2-159v-35l1-30 1-50v-43l-4-2-3-2v-2h-3v-2h-266v66l-1 112-1 148h-33v-10l1-7 2-44v-13l1-7v-10l1-7 1-29 1-17 1-18 2-31v-10l1-8 2-47 1-10 1-32 2-36 1-41-8-16-359-1 2 17 2 37 2 25 1 20 2 18 1 29 1 7 2 38 2 23 2 31 1 8 1 27 1 9 2 36 4 54v15h-30l-1-4-3-39-5-48-2-20-1-5-3-36-3-31-1-3-2-21-1-20-3-21-2-20-2-27-4-33-2-31-2-13-11-119-1-15z" fill="#E25D2D"/>
<path transform="translate(257,258)" d="m0 0h17l56 2 4 2-16 12-14 11-14 12-9 7-4 2v2h-16l3 23 7 68 4 32v3l-7 1h-40l4 16 4 19v9h2l4 16 10 47 12 57 4 20 5 29 4 48 8 86 2 13 2 31 5 43 2 28 2 19 2 11 1 20 2 21 1 3 5 52 1 15 2 13 5 53 3 31v14l-3 1-1 7 1 17v13l-5 1-15-5-14-8-20-13-14-10-16-12-14-11-15-13-9-9-2-1v-2l-4-2-16-16v-2h-2l-7-8-14-15-11-14-13-16-12-17-15-23-11-19-12-23-11-24-11-29-9-27-8-30-6-31-4-33-1-16v-64l2-34 3-26 7-36 3-12h2l2-11 7-24 10-29 12-29 13-28 12-22 12-21 24-36 14-19 13-16 9-11 11-12 7-8 36-36 8-7 13-12z" fill="#CAF5FB"/>
<path transform="translate(709,828)" d="m0 0h266v2h3v2l4 2 4 4v41l-1 50-1 36v29l-2 159 44 1v1h-45v32l-1 82-1 26 8-1 1 1v17h34v-15l9-134 1-2h21l34 2 192 12-7 55-7 58 52 4 43 4 16 2 10 2 25 2 3 1 3 5 3 2 6 1-3-4v-2l14 1 2 1v3h15l1 1h9l8 4 13 3 6 4 3 3-1 5-7 5-21 7-23 5-32 5-52 6-69 6-62 4-59 3-77 3-69 2-49 1h-292l-86-2-68-2-85-4-51-3-65-5-60-6-50-7-26-5-18-5-12-6-3-4 1-4 6-5 13-5 20-5h13l25-6 38-5 50-5h4l1 19h357v9h278v-26h3v-18l2-87 1-49 1-74 3-168 1-70h-264v23h-1z" fill="#93908E"/>
<path transform="translate(1060,636)" d="m0 0 8 1 54 10 109 21 33 6 56 11 10 2-1 6-10-2-52-10-19-4h-13l-33 6-3 19-3 22-4 35-3 23-3 26 8 1 24 6 23 3 68 8 5 1-1 13-2 12-2 18-2 21-3 20-2 15-2 24-4 31-2 20-1 4-2 22-4 29-1 14-1 3-1 14-2 13-2 16-1 14-1 3-1 13-1 3-1 13-2 8h-27l-213-14-7-1 1-19 15-230 11-167 4-66z" fill="#BA4121"/>
<path transform="translate(1340,648)" d="m0 0 53 1 64 2 20 1 2 3 2 31 1 32-1 33-2 26-6 36-9 36-12 36-12 29-15 30-9 15-14 22-12 17-10 13-11 13-9 11-12 12-7 8-12 12-8 7-13 12-7 6-1 2 6-4 16-13 15-14 6-5 7-8 10-10 7-8 12-14 11-14 13-18 14-21 11-19 12-23 7-15 11-27 10-30 7-29 6-36 3-29 1-21v-34l-1-24v-25h52l7 2 1 18 1 40v39l-2 29-4 28-7 34-7 26-10 30-12 29-14 29-11 20-12 20-11 16-12 17-13 16-9 11-11 12-9 10-24 24-7 6h-2v2l-11 9-12 10-9 7-8 6h-2v2l-16 11-13 8-7 4h-5l-3-5-1-9-1-3-3 1-2 3 1-9 1-13 1-3 2-23 2-17 1-3 1-14 1-3 3-31 3-20 1-14 1-4 2-20 5-39 1-16 4-31 1-4 2-21 2-18 4-25-13-1-60-7-23-3-32-8 1-17 3-27 4-30 3-24 3-22 2-6 33-6h13l24 5 52 10 5 2 2-11 8-32z" fill="#C9F5FB"/>
<path transform="translate(896,181)" d="m0 0 27 1 26 5 23 7 16 6 17 9 13 8 8 6v2l5 2 10 10 2 4 5 5 8 14 5 13 3 14v19l-3 16-8 21-4 7v4l3-1 19-1h20l-1 11-11 65 10 1h41l31 8 210 59 6 2-2 12-16 64-18 71-10 42-11-1-56-11-48-9-152-29-4-2 6-34 8-45 7-40 9-49 1-3h-17l-1 1-15 92-4 18h-128l-216-1-247-2h-137l-12-6-10-7-5-3-5-5-6-9v-2l685-8h18l6-36 16-93 3-12-28 21-19 11-16 8-13 6-25 8-31 7-19 2h-13v-1l31-5 25-7 20-8 27-13 12-7 13-10 10-8 12-11 7-7 13-17 8-13 7-16 5-17 1-7v-20l-4-17-8-17-10-14-10-11-13-10-15-9-23-11-21-7-22-5-19-3z" fill="#D2A77F"/>
<path transform="translate(368,799)" d="m0 0h286l-1 35-4 77-9 188-4 79-1 9h-242l-3-32-4-58-2-40-3-47-1-8-2-40-10-156z" fill="#8EECF7"/>
<path transform="translate(621,316)" d="m0 0h35l1 27 4 19 5 13 9 15 8 10 14 14 17 12 19 10 21 8 23 6 19 3 13 1h48l27-3 34-8 24-8 18-8 20-11 10-6h2l-1 8-11 57-8 39-1 2-672 4-1-1-3-24-10-111-5-49v-10l1-1 257-6z" fill="#FDECDC"/>
<path transform="translate(741,129)" d="m0 0h85l40 3 27 3 25 3 7 2 16 3 9 1 5 2 38 9 31 9 36 12 36 14 24 11 29 14 22 12 22 13 33 22 17 12 18 14 17 14 10 9 8 7 10 9 27 27 7 8 18 21 3 2 4 7 8 10 2 1 3 6 5 5 3 6 3 4v2h-8l-117-36-100-31-23-7-5-1h-28l-56 3-4 1v-5l7-14 6-18 2-12v-19l-4-17-7-16-7-10v-2l-3-1-4-6-8-8-4-2-5-5-11-7-8-5-16-8-20-7-17-5-26-5-19-2h-34l-31 2-22 3-23 5-27 9-18 8-18 10-16 11-14 12-8 7-9 11-8 11-9 16-6 12-1 1-125 3-98 2-33 1-54 1-27 1h-35l5-5 11-10 12-9 17-13 13-9h20l54 2 84 2h82l10-2 4-5v-7l-2-4-19-11-16-9-10-10-5-9-1-4v-11l5-20 3-10 5-3 37-10 31-7 36-6 39-5z" fill="#8EECF7"/>
<path transform="translate(756,868)" d="m0 0h194v78l-1 67-1 37-2 135-2 109h-181l-2-47-3-169-2-134-1-31v-44z" fill="#8BC8C8"/>
<path transform="translate(261,322)" d="m0 0 2 1 8 76 4 32v3l-7 1h-40l4 16 4 19v9h2l4 16 10 47 12 57 4 20 5 29 4 48 8 86 2 13 2 31 2 17v9h-23l-25-1-130-4h-7l5 17 10 28 12 27 9 19 14 24 7 11 8 12 12 17 10 13 11 13 12 14 7 7 7 8 9 9 16 14v2l4 2 14 12 9 7 11 9 11 8 1 4-6-1-16-12-17-13-11-10-8-7-12-11-25-25-9-11-10-11-7-9-12-16-12-17-17-28-14-26-14-32-12-36-7-26-6-32-3-20-2-22-1-24v-42l3-37 5-33 4-19 2-13 8-27 11-31 11-26 16-33 14-25 11-17 8-12 12-17 8-11 2-2v-7l-1-3v-9l19-1 2-5 9-9 7-8 10-10 7-8 7-7z" fill="#CAF5FB"/>
<path transform="translate(753,76)" d="m0 0h67l45 3 49 5 1 1 18 2 8 2 14 2 12 3 12 2 6 2 9 2 21 5 29 9 21 6 14 5 12 5 12 4 10 5 7 2 8 4 7 3 34 16 20 10 23 13 22 13 27 18 16 11 19 14 17 14 11 9 10 9 8 7 13 12 8 8 8 7 9 10 12 13 7 8 12 14 4 5 7 9 8 11 13 18 11 17 7 11 12 21 12 23 12 25 6 14 6 16 10 28v5l-22 12-22 11-6 1 1-4 15-7 5-2 20-12 2-2-1-7-4-8-11-24-6-9v-2h-3l-1 6-10 12-5 5-5 4-10 1-2-1v-3l-4-2-10-23-9-19-12-22-7-12v-2l-3-1v-2h-3l3 12 10 17 8 16 10 22 12 28-1 3-12 6-24 16-17 11-12 7h-5l1-7 6-17v-6l-1-1-12 1v2l-9 3 1-8 11-44 2-7h4l7 1 9-31 5-19 3-9-1-7-9-11-10-14-16-21-9-11-12-14-9-10-11-12-23-23-8-7-15-13-16-13-18-14-18-13-16-11-11-7-13-8-28-16-31-16-24-11-37-15-34-12-30-9-40-10-41-8-33-5-37-4-31-2-30-1h-35l-39 2-32 3-41 6-44 9-35 9-7 2h-5l-5-5h-8l-16 6-22 11-21 12-21 11-13 5-7-1-3-3v-8l5-18v-8l-2-2h-8l-9 3-23 13-16 11-8 5-9-1-1-4 16-8 29-15 5-1v-2l13-5 12-1 2 1v3h3l1-6 4-5 10-6 23-9 46-15 11-3 8-3 18-4 14-4 20-4 24-5 15-2 9-2 11-1 3-1 52-5z" fill="#8EECF7"/>
<path transform="translate(1074,463)" d="m0 0 17 1-2 13-12 67-3 17-11 63-2 11-1 1h-788v7h-1l-5-30-13-61-12-57-3-16h-2v-6l41-1 2 1 2 9 6 49v11h2l8 12 6 3 5 4 15 9 3 1h153l136 1 311 2 128 1 2-13 12-72 4-25z" fill="#F5D0B0"/>
<path transform="translate(710,829)" d="m0 0h264v70l-3 168-1 74-2 101-1 35-1 18h-3v26h-278l-1-17 1-8 1-1 20-1v-92l1-41h-32l-1-1v-6h33v-148l1-112 1-42zm46 39-1 1v44l1 31 2 134 3 169 2 47h181l3-167 1-77 1-37 1-67v-78z" fill="#FDEBDC"/>
<path transform="translate(896,181)" d="m0 0 27 1 26 5 23 7 16 6 17 9 13 8 8 6v2l5 2 10 10 2 4 5 5 8 14 5 13 3 14v19l-3 16-8 21-4 7v4l3-1 19-1h20l-1 11-11 65 19 2-2 14-4 19-1 1h-17l-1 1-15 92-4 18h-128l-216-1-247-2h-137l-12-6-10-7-5-3-5-5-6-9v-2l685-8h18l6-36 16-93 3-12-28 21-19 11-16 8-13 6-25 8-31 7-19 2h-13v-1l31-5 25-7 20-8 27-13 12-7 13-10 10-8 12-11 7-7 13-17 8-13 7-16 5-17 1-7v-20l-4-17-8-17-10-14-10-11-13-10-15-9-23-11-21-7-22-5-19-3z" fill="#CFB094"/>
<path transform="translate(685,763)" d="m0 0 3 4 5 10-1 41-2 36-1 32-1 16-2 41-1 10-1 26-1 13-1 25-1 10-1 29-1 9v8l-1 12-1 34-1 18-1 7v16l32 1v44l-1 89-20 2-2 16h-356l-1-4-2-29-6-77-2-26-1-2v-12l2-3 34 1 1 6 3 60 205-1h99l1-4 10-188 8-164 5-102z" fill="#F5D0B0"/>
<path transform="translate(862,221)" d="m0 0h13l18 1 20 4 15 5 19 10 12 11 4 4v2h2l5 8 1 3v9l-4 6-5 4-6 2h-4l8 10 2 6 8 4 1 2v6l-4 5 10 2 6 4 2 4v8l-5 10-6 7-9 6-11 6-20 8-24 7-30 7-36 7-29 4-11 1h-29l-16-3-7-3-6-4-7-8-1-7 3-7 3-2h3l-4-5v-5l4-3h2l-3-7v-13l3-7-5 2h-9l-8-5-4-7 1-10 4-14 8-16h2l1-4h2l2-5 3-3h2v-2h2l2-4 11-8 14-9 12-7 33-11 21-4z" fill="#EC702A"/>
<path transform="translate(1032,1161)" d="m0 0h21l34 2 192 12-7 55-7 58 2 1h-3v9l-1 11-1 1-65 1h-175v-14l9-134z" fill="#D2A880"/>
<path transform="translate(848,192)" d="m0 0h30l20 2 23 4 15 4 24 9 21 11 11 8 10 9 9 9 9 14 6 16 2 8 1 9v10l-3 16-6 16-9 17-10 13-11 12-8 8-11 9-21 14-23 12-20 8-24 7-20 4-15 2-33 3v-2l-20-2-25-5-21-7-16-8-14-8-11-9-11-10-10-13-9-17-5-15-2-16 1-17 5-19 7-16 10-16 9-10 7-8 11-10 17-12 20-11 21-9 18-6 12-3 27-4zm14 29-26 3-21 5-28 10-17 10-20 15v2h-2v2l-4 2-3 4v2h-2l-1 4h-2l-8 16-4 14-1 10 5 8 7 4h9l5-2-3 7v13l3 7-5 2-1 1v5l4 5-5 1-3 5-1 8 4 6 8 7 5 3 13 3 7 1h29l27-3 35-6 37-8 28-8 16-6 11-5 12-7 5-4 8-11 2-5v-8l-4-6-6-3-8-1 4-5v-6l-4-4-5-2-4-9-6-7 8-1 6-4 4-5 1-2v-9l-4-8-2-3h-2l-2-4-10-10-13-8-15-7-18-5-12-2-18-1z" fill="#FDECDC"/>
<path transform="translate(368,799)" d="m0 0h286l-1 35-4 77-9 188-4 79-1 9h-242l-3-32-4-58-2-40-3-47-1-8-2-40-10-156zm247 36-143 4-68 3-3 49-1 8-3 45-1 7v34l4 56 5 82 3 42 1 2h161l56-1 2-29 3-58 3-65 2-33 3-71 4-70v-5z" fill="#421A20"/>
<path transform="translate(1108,350)" d="m0 0h28l25 7 223 69 11 3 10 5 1 7-3 9-5 19-9 31-4 1-7-2-107-30-114-32-27-7h-41l-10-1-1-2 13-76z" fill="#F6D1B1"/>
<path transform="translate(1235,676)" d="m0 0h13l24 5 52 10 5 2 1-3v4l9 1 38 8 4 1-1 10-14 64-12 53-15-1-56-6-42-5-23-3-32-8 1-17 3-27 4-30 3-24 3-22 2-6z" fill="#C3AB98"/>
<path transform="translate(350,779)" d="m0 0h313l-1 30-6 122-6 124-7 142-1 7h-265l-1-5-5-73-11-176-9-141-1-18zm18 20 1 24 10 156 1 23 2 24 3 47 2 37 5 70 1 7h242l2-27 9-189 6-122 2-39v-11z" fill="#D3A87F"/>
<path transform="translate(261,322)" d="m0 0 2 1 8 76 4 32v3l-7 1-41 1-16-1-3-7-4-21v-5h-2l-1-2-7 8-16 24-9 14-13 22-13 25-7 16-5 11h-2l-3 9-11 30-8 26-7 29-6 36-4 39v68l5 40 6 31 3 10 6-4 13-11 12-9 18-13 18-11 13-6 7-2h6l1 1-1 23 9-2 19-10 19-12 32-20 5 2 3 6 2 17 2 26 3 30v9h-23l-25-1-130-4h-7l5 17 10 28 12 27 9 19 14 24 7 11 8 12 12 17 10 13 11 13 12 14 7 7 7 8 9 9 16 14v2l4 2 14 12 9 7 11 9 11 8 1 4-6-1-16-12-17-13-11-10-8-7-12-11-25-25-9-11-10-11-7-9-12-16-12-17-17-28-14-26-14-32-12-36-7-26-6-32-3-20-2-22-1-24v-42l3-37 5-33 4-19 2-13 8-27 11-31 11-26 16-33 14-25 11-17 8-12 12-17 8-11 2-2v-7l-1-3v-9l19-1 2-5 9-9 7-8 10-10 7-8 7-7z" fill="#FBFCFC"/>
<path transform="translate(756,868)" d="m0 0h194v78l-1 67-1 37-2 135-2 109h-181l-2-47-3-169-2-134-1-31v-44zm14 19v31l2 81 1 19 1 52 1 29 1 72 2 77 2 5h154l1-1 2-67 1-42 1-21 2-59 3-153v-22l-93-1z" fill="#814D51"/>
<path transform="translate(896,181)" d="m0 0 27 1 26 5 23 7 16 6 17 9 13 8 8 6v2l5 2 10 10 2 4 5 5 8 14 5 13 3 14v19l-3 16-8 21-5 9-4 23-13 78-13 80-3 13-1 1-156 2-176 2-44 1-291 2h-51l-8-12v-2l685-8h18l6-36 16-93 3-12-28 21-19 11-16 8-13 6-25 8-31 7-19 2h-13v-1l31-5 25-7 20-8 27-13 12-7 13-10 10-8 12-11 7-7 13-17 8-13 7-16 5-17 1-7v-20l-4-17-8-17-10-14-10-11-13-10-15-9-23-11-21-7-22-5-19-3z" fill="#E78F35"/>
<path transform="translate(257,258)" d="m0 0h17l56 2 4 2-16 12-14 11-14 12-9 7-4 2v2h-16l1 5v9l-10 9-15 16-7 7-7 8-5 6-1 2-3 1h-16l2 12v7l-6 7-11 16-9 13-15 23-16 29-16 33-10 25-10 28-6 19-5 20h-1v-7l5-18 6-21 3-7 2-14 4-14 2-9-9 5-5 5-3 4-7 1-2-7-8-1-6 4-7 8-5 4-5 10-3 4-5 14-5 18-3 9-5 18-1-4 7-29 7-24 10-29 12-29 13-28 12-22 12-21 24-36 14-19 13-16 9-11 11-12 7-8 36-36 8-7 13-12z" fill="#8EECF7"/>
<path transform="translate(545,837)" d="m0 0h51l-4 2-5 1h-8l41 14 11 4 1 2h-3l-4 77-1 22-4 1-56-11-18-3-2-7-4-36v-6l-119 5h-20l1-32 2-28 68-3z" fill="#C9F5FB"/>
<path transform="translate(929,915)" d="m0 0 7 1 1 5-2 45-1 32-1 34-1 8-10-1-42-8-55-11-38-7v-19l1-5 1-16 2-16 3-37 2-3 4 1 1 1 1-2 44-1z" fill="#C9F5FB"/>
<path transform="translate(784,1043)" d="m0 0h8l75 15 7 2 15 2 16 4 25 5 2 1-2 52v2 31l-3 84h-23l-22-1-5-93-1-24-39-2-60-2v-14l5-52z" fill="#BDE1E2"/>
<path transform="translate(402,1064)" d="m0 0 5 3 11-1h12l1 1 4 54v10l31-1 2 1-1-39v-15l20-1h92l-2 4-8-1-5 5-1 3v18l5 46 46-1 2-31 2-47-5-1v-1h18l-1 26-3 60-1 10-56 1h-161l-1-2-5-73z" fill="#67ABA2"/>
<path transform="translate(770,887)" d="m0 0h81l93 1v23h-148l-1 9-4 48-1 5-1 16-2 17-6 69-4 44h28l12 1v66l29 1 1 63-1 2h88v1h-154l-2-5-2-77-1-72-1-29-1-52-1-19-2-81z" fill="#68ABA2"/>
<path transform="translate(615,835)" d="m0 0h28l-2 38-4 79-1 29-2 33-3 56-4 1-14-1 1-11 3-1 3-34 2-30 2-9-29-5-6-2-21-4-10-1-1-1-11-1-6-2-60-11-34-6-16-2-29-5-3-1v-12l2-33 1 3 114-5h25l6 48 18 3 56 11h3l3-60 2-35 1-4 2-1-34-12-18-6-2-2h11l4-1-16-1v-1z" fill="#8EECF6"/>
<path transform="translate(853,308)" d="m0 0 2 1 3 3 5 2v2l9 2 5 1h22l3-1-2 5-4 5-2 6-5 5 10-2 34-7 14-2 9-3 8-1 2-1 9 1 8 5 2 4v8l-5 10-6 7-9 6-11 6-20 8-24 7-30 7-36 7-29 4-11 1h-29l-16-3-7-3-6-4-7-8-1-7 3-7 3-2h3l1-3 8-2 9-1 6-2h9v-2l15-2 12-1v-2l-5-2-18-10-7-3v-1l16-1 13-2 3 2 8-1 5-3 2-5 11-8 9-10 9-1z" fill="#FB9735"/>
<path transform="translate(737,855)" d="m0 0h170l44 1v42h-1v-30l-194 1v44l1 31 2 134 3 169 1 27v20h181v-48h1v49h-210v-209l1-196z" fill="#D2A780"/>
<path transform="translate(1098,429)" d="m0 0h32l31 8 210 59 6 2-2 12-6 25-6-1-4-3-8-1-5-1-8-2-7-4-10-2h-8l-5-4-10-2v2l-9-2-3-1-21-5-31-8-103-27-29-7-11-2 5-25z" fill="#BD8358"/>
<path transform="translate(862,221)" d="m0 0h13l18 1 20 4 15 5 17 9-4 3-16 8-28 15-28 13-25 11-25 9-24 7-28 6-30 4h-13l-1 4 1-10 4-14 8-16h2l1-4h2l2-5 3-3h2v-2h2l2-4 11-8 14-9 12-7 33-11 21-4z" fill="#FA9634"/>
<path transform="translate(643,835)" d="m0 0h9v14l-9 186-6 125-2 27h-242l-3-32-3-45v-10h1l2-18 2-38 2-22 3-4v-20h1l3 43 5 82 3 44 57-1h160l1-29 3-58 3-65 2-33 3-71 4-70z" fill="#814D51"/>
<path transform="translate(550,971)" d="m0 0h7l1 1 15 2 21 4 7 2 24 4-2 10-3 42-2 22-4 1v7l-1 5h5l1 5-3 62-1 12-1 1-46 1-1-1-5-46v-18l3-6 4-3h5 4l5-5 10-4-16-2-8-2v-1l18-2 1-5-11-1-4-1-6-1-3-5-5-2-3-7-4-31-3-31v-6z" fill="#C9F5FB"/>
<path transform="translate(756,868)" d="m0 0h194v42l-4 1v28l-2 45h-1v-75l1-21h-93l-81-1 3 112 1 19 1 52 1 29v19l-1 31-1 5-3 26-3 13-2 15-3 9h-1l-1-5-1-14-3-178-1-76-1-31v-44z" fill="#441C22"/>
<path transform="translate(201,399)" d="m0 0 1 3h2l6 30 1 2 16 1 2 2 7 33v9h2l2 14 7 33-1 11-2 1-4-4-2-7-5 1v2l-5-2-8-4-1-2h-6l-4-2v-2h-11l-10-2-7 1-6 1-3-1-6 4h-3l-1 3-3 1h-8l-8 2-6 6h-11l1-5 7-18 7-14 10-21 12-21 13-21 11-16 10-14z" fill="#8EEDF7"/>
<path transform="translate(796,911)" d="m0 0h148l-3 152-2 59-1 3-3 1h-6l-1-2h2v-26l1-24 1-2-23-4-18-4-8-2-14-2-13-3-64-13-8-1-1 3 3-40h1v7l11 1 58 11 34 7 32 6 10 2 1-42 3-81-7-1-83 1h-44l-1 3-5-3-1 2z" fill="#BCE1E2"/>
<path transform="translate(1091,465)" d="m0 0 11 1 13 3-1 2 3 4-1 3-3 1 1 4-2 5-1 8 3 17 2 20-1 2h2v8 3 6l1 6v9l1 11-1 20v8l-2 5-1 5 4 12 4 7-1 2-14 3-11 1 1 1-3 1-31-6-4-2 6-34 8-45 7-40 9-49z" fill="#C99D74"/>
<path transform="translate(981,1160)" d="m0 0h44l6 3v16l-9 133h-34l-1-17h-8v-26l1-82z" fill="#F5D0B0"/>
<path transform="translate(770,887)" d="m0 0h81l93 1v23h-148l-1 9-4 48-1 5-1 16-2 17-6 69-4 36h-1l-1-12-1-29-1-52-1-19-2-81z" fill="#677070"/>
<path transform="translate(784,1043)" d="m0 0h8l75 15 8 3 1 61h-18l-81-3v-14l5-52z" fill="#8EECF7"/>
<path transform="translate(1032,1161)" d="m0 0 7 1 2 2 8 1 1-2 9 1-2 2 1 2h-4l-1 3h-3l1 5 7 2 4 7 2 1 3 10 1 10 5 3-1 10 2 2-1 10-1 5 2 4 1 14 1 5-2 5 1 11v9l3 5 2 7-1 2h4v7l-1 2 4 2 20 1v1h-84v-14l9-134z" fill="#C99D74"/>
<path transform="translate(709,828)" d="m0 0h266v2h3v2l4 2 4 4v41l-1 50-1 36v29l-2 159 44 1v1h-45v32l-1 82-1 26 8-1 1 1v17h12v1h-12v6l-2 1-10 1h-13v-26h3v-18l2-87 1-49 1-74 3-168 1-70h-264v23h-1z" fill="#D3A87F"/>
<path transform="translate(387,819)" d="m0 0h212l44 1v10l-1 5-97 3-100 3-23 1h-18v12l-2 37-1 8-3 45-2 10h-1l-4-57-4-60z" fill="#677070"/>
<path transform="translate(261,322)" d="m0 0 2 1 8 76 4 32v3l-7 1-41 1-16-1-3-7-7-36-3-12v-9l19-1 2-5 9-9 7-8 10-10 7-8 7-7z" fill="#FEEDDE"/>
<path transform="translate(1404,433)" d="m0 0h2l3 10 2 5-2-1v-2h-3l3 12 10 17 8 16 10 22 12 28-1 3-12 6-24 16-17 11-12 7h-5l1-7 6-17v-6l-1-1-12 1v2l-9 3 1-8 11-44 2-7h4l7 1 9-31 5-19 3-9z" fill="#8FECF7"/>
<path transform="translate(1235,676)" d="m0 0h10l-3 15-10 69-2 22v12h-2l1 3v10l-5 1 3 6 2 2h-11l-32-8 1-17 3-27 4-30 3-24 3-22 2-6z" fill="#CEB8A8"/>
<path transform="translate(949,910)" d="m0 0h1v36l-1 67-1 37-2 135-2 109h-181l-2-47v-35l2 1 3-9 1-11 3-13 3-27 1-4 1-31h1l1 53v53l-2-1-2 7-4 11-1 11-2 7v11l1 16h2l2 3h15 3 4 4l5-2 35 1 15-1 6 1 3-1h2l10 1 7-1h9l3 1 9-1 6-1 4 1 2-1v2l7-1h16l2-10v-10-4l-1-4h-7l-8 3h-3v-2l-4 1-12-2-2-1-14-1-5 1-3-1-16-2-1 2v-2l-6 1-1-2h79l3-111 1-21 2-59 2-97h1l1-5 2-50z" fill="#913C38"/>
<path transform="translate(401,1052)" d="m0 0 19 1 59 5v2h13l64 5 21 1 23 3v1l-13 2-5 3h-2l-1 2h-112l1 15v39h-33l-5-64h-12l-12 1h-3l-2-7z" fill="#8CC8C8"/>
<path transform="translate(515,897)" d="m0 0h25l5 42v5l-10-1-95-19-25-3-15-4v-18l1 3z" fill="#8DECF7"/>
<path transform="translate(929,915)" d="m0 0 7 1 1 5-2 45-1 10-13-5-9-4-42-18-48-20-16-7-4-2v-3l44-1z" fill="#BDE1E2"/>
<path transform="translate(685,763)" d="m0 0 3 4 5 10-1 41-2 36-1 32-1 16-2 41-1 10-1 26-1 13-1 25-1 10-1 29-1 9v8l-1 12-1 34-1 18-1 7-1 24-4 58-9-1 4-80 6-112 8-164 5-102z" fill="#D4A880"/>
<path transform="translate(600,1069)" d="m0 0h8l10 2 1 5-3 62-1 12-1 1-46 1-1-1-5-46v-18l3-6 4-3h5 4l5-5 9-3z" fill="#BCE1E2"/>
<path transform="translate(400,917)" d="m0 0 9 1 6 2 25 3 100 20 6 2 5 8 2 16 4 2h-11l-6-2-60-11-34-6-16-2-29-5-3-1v-12l1-14z" fill="#8AC7C7"/>
<path transform="translate(1108,350)" d="m0 0h28l3 1-1 12-9 61-2 5-38 1-10-1-1-2 13-76z" fill="#FDECDD"/>
<path transform="translate(1333,722)" d="m0 0h10l5 2 6 5 6 10 2 6 1 15-3 15-3 9-7 11-7 7-8 4h-9l-6-2-5-4-8-14-2-8v-9l2-13 4-12 7-11 7-7z" fill="#A39386"/>
<path transform="translate(1047,352)" d="m0 0 2 2 3-1 19-1h20l-1 11-11 65-2 2h-42l1-13 7-42z" fill="#CEB8A8"/>
<path transform="translate(875,1061)" d="m0 0h8l36 8 13 3-2 52h-31l-23-1-1-12z" fill="#C9F5FB"/>
<path transform="translate(796,917)" d="m0 0 4 1 2 2v56l-1 13 68 3 1 7v29l-10-1-57-11-16-3v-19l1-5 1-16 2-16 3-37z" fill="#8DECF7"/>
<path transform="translate(431,432)" d="m0 0h7l7 4 6 8 2 5v16l-4 12-9 12-7 6-7 4-4 1h-10l-6-3-6-7-3-6v-20l6-12 3-7 5-5 4-3h8v-4h3l1 4h2z" fill="#935955"/>
<path transform="translate(371,713)" d="m0 0h71l34 1 7 3-2 4-12 4v2h-2l-2 6 9 2-1 2-5 1v2l-18 1-10 1-14 1h-54l-1-1z" fill="#BA4121"/>
<path transform="translate(786,1006)" d="m0 0h1v7l11 1 58 11 14 3 1 1 2 23v5l16 4v1l-15-1-22-5-60-12-8-1-1 3z" fill="#89C7C6"/>
<path transform="translate(328,349)" d="m0 0h20l4 1v2l5 2 3 3 2 4v10l-3 5-4 4h-2l3 5 3 4v9l-3 8-9 8-6 2h-9l-2-3-1 3-2 1h-7v-2l-3-1-2-5 1-22 2-13 3-3h2l-1-3-3-2 1-10 3-6z" fill="#935B57"/>
<path transform="translate(465,431)" d="m0 0h17v15l-3 9-4 20-1 8 6-2 2-2h3l2-19 2-11h2v-9l3-8 1-1h18l-1 8-3 8-3 16-4 18-5 17h-6l-2-2-1 1h-5v-2l-6 3h-13l-3-2v-2h-2l-2-6v-18l5-30z" fill="#945C57"/>
<path transform="translate(404,347)" d="m0 0h18l-4 17-2 6-4 22-2 9-3 12-2 2h-5v-4h-2l-1 3h-4v-2l-11 4-9-1-5-5-2-4v-22l1-7h2v-12l1-1 3-15 1-1h16v15l-3 14-1 1-3 21 6 1 1-3 4-4 3-24 1-6h2v-9l3-6z" fill="#945A56"/>
<path transform="translate(590,341)" d="m0 0h21l7 4 3 3 3 6v8l-3 9-7 7 1 6 5 15 2 4v5l-10 2h-4l-3-7-9-17v-2h-2l-1 10-3 13-5 1-7 1-1-1v-16l1-8 1-19 4-7h-5l1-13 5-3z" fill="#935956"/>
<path transform="translate(431,346)" d="m0 0h29l7 3 5 5 1 3v14l-3 6-6 6 1 6 6 16 1 8-10 2-4-1-5-10-7-13v-2h-2l-1 11-3 12-5 1-7 1-1-1 1-18 2-29 3-1v-2h-5l1-16z" fill="#935955"/>
<path transform="translate(1439,501)" d="m0 0 3 4 9 21 3 2v3h8l7-3 5-6 5-4 4-6h2l2-8h3l5 7 10 21 5 11 3 6v5l-5 5-12 6-10 6-10 4-6 3-1 3 3 1h-4l-7-21 1-16-3-3-5-2-11-27-4-9z" fill="#C9F5FB"/>
<path transform="translate(355,433)" d="m0 0h7l-1 14-4 16 11-1 2-8 2-13 2-7 11-1h7l-2 13-3 9-6 31-1 7-2 7h-14l1-21 1-3h-8l-2-1v-3h-2l-2 18-2 10-15 1 2-27 4-28 2-11h4v3l4-4z" fill="#955C57"/>
<path transform="translate(1198,811)" d="m0 0 33 6 44 5 34 4 5 1-1 13-2 12-2 18h-1l-1-7-5 2-29-14-33-16-15-8-2-2v-3l-11-4-5-3-9-3z" fill="#933C38"/>
<path transform="translate(796,245)" d="m0 0h17l9 2 3 5h-2l-1 2-2-5-22 1-3 1 7 3 5 1h9l2-1v2h2v2l5-1v7l-5 4-3 7-15 11-16 8-13 3h-13l-2-2-2-13v-2l-3 3-2-1 2-6 7-10 9-8 14-8z" fill="#FEC583"/>
<path transform="translate(655,798)" d="m0 0h2l3 6-6 106-3 61-3 62-1 38v16h1l-1 30-2-1-1 4-3 53-1 8-3 8-3 2h-20l-8-1h-19l-10 1h-7l-7-1-24-1v-1l95-1 2-27 9-189 6-122 2-39z" fill="#E3B186"/>
<path transform="translate(1077,429)" d="m0 0h12l9 1-2 14-4 19-1 1h-62l1-11 4-23z" fill="#C89C73"/>
<path transform="translate(947,291)" d="m0 0 6 1 7 8 2 6 8 4 1 2v6l-4 5-3 2-16 3-6 2-19 3-24 5-2 1h-8l2-4 3-2 2-6 5-8h-19l2-2 13-3 3 1 1-2 4-2 7-1 4-3 9-4 10-9z" fill="#B84122"/>
<path transform="translate(565,556)" d="m0 0h29l12 1h8l10 1h5l1 2 4 2 22 2 10 1-3 1v2h-5l-4-1-16 1h-44l-43 1-135-1-10 1-8-2 1-2 23-2 15-1 9-1 21-2 20-1 8 1 45-1 20 1 1-2z" fill="#C3AC99"/>
<path transform="translate(505,344)" d="m0 0h14v2h-2l1 3v8l-4 4-9 3-5 4-1 2h-2l-1 4-3 8v10l2 4h7l5-7 1-4h-7v-5l4-8h21l-1 9-4 13-7 9-5 5-5 1v2h-14l-7-5-5-8-1-4v-19l5-12 7-9 8-7z" fill="#945B57"/>
<path transform="translate(576,428)" d="m0 0h27v9l-2 1 1 6-1 2h-19v2h4v4h-2v6h11v9l-5 3-10 2-2 9h17l-2 12-1 3h-30l-1-1v-12l3-23 3-8 2-5-4-1 1-15 1-1z" fill="#955C58"/>
<path transform="translate(544,342)" d="m0 0h21v2h2l2 4 1 11-2 1h-18v2h4l-1 9h11v7l-1 4-5 2-9 1-2 10h16l-1 13-2 2h-31l1-16 3-22 3-7 2-5-5-1 1-14 6-2z" fill="#945B57"/>
<path transform="translate(893,681)" d="m0 0h63l2 3v14l1 11-5 1h-58l-4-1v-22z" fill="#BB4121"/>
<path transform="translate(841,312)" d="m0 0v3l-7 8-10 7-2 5-8 4-7-1-3-1-11 2-13 1 17 9 10 6v2l-16 3h-11v2l-14 2-1 1-9 1-10 2-3-3v-5l4-3h2l-3-7v-13l4-7 9-2h5l4 4 17 2 10-1 17-3h4l5-5h2l1-3h2l1-3h2v-2l-2-1 10-3z" fill="#BB4222"/>
<path transform="translate(419,681)" d="m0 0h16l1 14v15h-65v-28z" fill="#BA4121"/>
<path transform="translate(303,682)" d="m0 0h65v28h-63l-3-4z" fill="#CB4D27"/>
<path transform="translate(961,682)" d="m0 0h68v26l-1 1h-65l-1-9v-15l-2-2z" fill="#CA4C26"/>
<path transform="translate(1027,352)" d="m0 0 3 1 5-1 3 3 1 4-4 9-12 14-5 4-6 8-13 10-11 8-19 11-16 8-13 6-25 8-31 7-19 2h-13v-1l31-5 25-7 20-8 27-13 12-7 13-10 10-8 12-11 7-7 13-17z" fill="#E58D38"/>
<path transform="translate(947,711)" d="m0 0h29l21 1 1 27-62 1-3-1v-27z" fill="#BA4121"/>
<path transform="translate(547,946)" d="m0 0h7l35 7 31 6h4l-1 25-22-3-17-4-16-3-10-1-1-3-5-1-2-16z" fill="#BCE1E2"/>
<path transform="translate(270,435)" d="m0 0h5l3 21 1 17h-43l-6-27-2-10z" fill="#E8B68A"/>
<path transform="translate(537,430)" d="m0 0h19v10l-2 7h-10v2h-3l3 7 6 8 2 5v11l-5 9-8 6-10 2h-9l-2-2v-9l3-5 13-1v-7l-9-8-4-7v-14l4-6 4-2v-2z" fill="#945A56"/>
<path transform="translate(1280,485)" d="m0 0 3 1v2l4-1v2h3l1-2 1 3 4 2 3-1-1-4 1-1 8 1 14 3 20 7 6-1v4l7 3 2 4-5 5h-6l-1 2 2 2-2 2h-7l-7-2-3 2-9-1v-2l-4 1-4-2-1-3-8 1-1-5v-6l-6 6-4 1-1-3h-2v-3l-7 2-6-4 1 4-5-2-1-2-5-2 2-5h10v-5l3-2z" fill="#C89C73"/>
<path transform="translate(775,1118)" d="m0 0h1l1 53v53l-2-1-2 7-4 11-1 11-2 7v11l1 16h2l2 3h15 3l6 1h5l5 1h13l13 1 5-1v2l3-1h94l4-2 1-2h2v-4h2l-1-5v-14l2-12h1v41h-181l-2-47v-35l2 1 3-9 1-11 3-13 3-27 1-4z" fill="#632E34"/>
<path transform="translate(624,960)" d="m0 0 8 1 4 1v19l-2 33-3 56-4 1-14-1 1-11 3-1 3-34 2-30 2-9-2-4 1-20z" fill="#92ECF6"/>
<path transform="translate(981,1155)" d="m0 0h52l213 14 27 1v-5h1v5l5 1v4h-15l-131-8-59-4-42-2v2l-5-1-2-1h-43l-1-1z" fill="#FBE4D1"/>
<path transform="translate(1427,517)" d="m0 0 2 1v2h2l8 12 1 7-5 5-11 6-8 7-17 12-8 5-5 1-1-1 1-10 3-5 3-3 2-18 2-4 7-3 1-2 7-2v4l-1 3 7-2 8-9z" fill="#CAF6FC"/>
<path transform="translate(796,911)" d="m0 0h148l-2 100h-1l-1-32-5-2-1-1 1-32 1-27-7-1-83 1h-44l-1 3-5-3-1 2z" fill="#87C4C2"/>
<path transform="translate(679,994)" d="m0 0 2 1 1 22-1 10-1 29-1 9v8l-1 12-1 34-1 18-1 7-1 24-4 58-9-1 4-80h1l1 5h2l2-8 4-88 1-10 1-29z" fill="#E1AE83"/>
<path transform="translate(934,977)" d="m0 0 7 2v84l-2 59-1 3-3 1h-6l-1-2h2v-26l1-24 2-76z" fill="#8FECF6"/>
<path transform="translate(739,745)" d="m0 0h17l11 3h15l1 2 5-1 6 2 2 3v4l-8 2 3 3v2l5 1 2 4-10-1-8 1h-9l-8-1-7 1-10-1-9-1-1-14 1-3h2l-2-5z" fill="#CB4D27"/>
<path transform="translate(437,713)" d="m0 0 39 1 7 3-2 4-12 4v2h-2l-2 6 9 2-1 2-5 1v2l-18 1-10 1-14 1h-15l-4-2 21-2 2-2 3-5 2-18z" fill="#CB4D27"/>
<path transform="translate(648,835)" d="m0 0h4v14l-9 186-6 125-2 26h-8v-3h2l2-6 1-1 1-32 1-3 3-53 2-41 3-65 2-45 2-32 1-20-1-4 2-19v-19l1-6z" fill="#71363A"/>
<path transform="translate(946,911)" d="m0 0 3 1h-2l1 32v59l-1 6-2 3v43l1 22-1 19h-2v-11l-1 15-1 29v39h-2l1 5-2 32h-1v-62l1-21 2-59 2-97h1l1-5z" fill="#632F36"/>
<path transform="translate(261,330)" d="m0 0 3 1 3 29v9h-41l2-4 8-8 7-8 10-10 7-8z" fill="#8FECF7"/>
<path transform="translate(932,294)" d="m0 0 3 1-10 9-9 4-4 3-7 1-5 3-9 1-7 2 15 1v1h-22l-11-3-3-1v-2l-5-1-2-1v-3l4-2 13-2 52-10z" fill="#E25D2C"/>
<path transform="translate(491,1178)" d="m0 0 4 1v2l4-1v-2l6 2 5-1 3 2 2-2 9 3 5-1 6-2v3l3-1h2l6-3h2v3h3l2-2v2l3-2h3l2 2h3l11-1 7 1h12 3l11 1 11 3v1h-190l4-2 14-2 3 1 20-2 3 1 1-2 2 1 1-2h2l1 2 1-1h9z" fill="#933B37"/>
<path transform="translate(1027,352)" d="m0 0 3 1 5-1 3 3 1 4-4 9-12 14-5 4-6 8-5 2 6-7-5-1-9 4-2 3h-2l-1 3-10 8-10 7-11 6-8 4-3-1 6-4 9-5 13-10 10-8 12-11 7-7 13-17z" fill="#BF8254"/>
<path transform="translate(960,303)" d="m0 0 2 3 8 4 1 2v6l-4 5-3 2-16 3-6 2-19 3-24 5-2 1h-8l2-4 4-3h13l8-3 5-2 1-3 4-1v-2l3-2h7l4 1v2l6-3 12-12h2z" fill="#958E89"/>
<path transform="translate(950,858)" d="m0 0h1v40h-1v-30l-194 1-1 59-2-2v-9l-1-10-1-3v-24l1-4v-7l2-2 13-1 4-1 7 1 4 1v-2h5v1l7 1v-2l6 1 1-1 25-1 41 1h17l2 1 1-2h6l1 1h15l10-1h19l3 1h8z" fill="#E1B086"/>
<path transform="translate(690,782)" d="m0 0h2v36l-2 36-1 32-1 16-2 41-1 10-1 26-2 13-3-1 1-29 2-31 2-42 1-12 1-37 2-21 1-26z" fill="#DEAA7E"/>
<path transform="translate(1079,429)" d="m0 0h10l9 1-2 14-4 19-1 1h-18l1-9 4-25z" fill="#E7B589"/>
<path transform="translate(825,315)" d="m0 0 4 1v3l-5 4-4 4-5 4-15 2-12 2-11-1-9-1-4-4-3-2z" fill="#E25C2C"/>
<path transform="translate(615,835)" d="m0 0h15l1 2-1 2-1 16-1 2-11-3-38-13-2-2h11l4-1-16-1v-1z" fill="#BDE2E3"/>
<path transform="translate(658,860)" d="m0 0h1l-1 29-7 145-3 53-1 6h-1v-22l1-38 3-62 3-61 2-37 1-5h2z" fill="#D2AA85"/>
<path transform="translate(757,1074)" d="m0 0 2 4 3 169v44l-1-2-3-1v-15l1-2v-6l-1-5-1-22 1-7-1-26-1-51 1-16-1-46v-15z" fill="#E2B084"/>
<path transform="translate(787,346)" d="m0 0 8 2 12 7v2l-16 3h-11v2l-14 2-1 1-9 1-10 2-3-3v-5l6-4 15-1 11-2v-2z" fill="#958C85"/>
<path transform="translate(718,469)" d="m0 0h9l4 5v12l-6 9-6 4h-8v-2l-3-1-2-4v-9l2-5h2l1-4z" fill="#97605B"/>
<path transform="translate(981,1155)" d="m0 0h52l60 4 8 2v1l-7 1h-20l-42-2v2l-5-1-2-1h-43l-1-1z" fill="#FDEBDB"/>
<path transform="translate(665,1145)" d="m0 0h1l1 13 2 7h-2v2h5l-1-3 2-4v19l-3 47-9-1z" fill="#D8AB82"/>
<path transform="translate(428,450)" d="m0 0 5 1 2 3v12l-3 7-6 9h-3v2h-7l-4-5v-11l5-9 5-5 5-3z" fill="#F9E7D6"/>
<path transform="translate(1053,554)" d="m0 0 3 1v12l-2 8-104-1 4-2 11-1 6 1 1-2 8 1 16-1 1 1 8-1h6l3 1h6v-2h6l4-2h13l3-3 5-9z" fill="#C3AC9A"/>
<path transform="translate(982,925)" d="m0 0h1v54l-2 136h-1l-1-10v-136l1-27 1-15z" fill="#CFB196"/>
<path transform="translate(932,1073)" d="m0 0h7v49l-1 3-3 1h-6l-1-2h2v-26l1-24z" fill="#93EAF4"/>
<path transform="translate(261,322)" d="m0 0 2 1v8l-4 2-14 15-7 7-7 8-5 6h32v1h-40l-1-2 7-8 14-15 7-7 7-8 7-7z" fill="#EDFAFC"/>
<path transform="translate(643,835)" d="m0 0h5l2 2-1 6v19l-2 22 1 2-1 19-1-4-3 3h-3l1-44 1-20z" fill="#7D3B3C"/>
<path transform="translate(439,149)" d="m0 0 7 1v3h2l-1 7-2-4-2-2h-8l-9 3-23 13-16 11-8 5-9-1-1-4 16-8 29-15 5-1v-2l13-5z" fill="#8EEDF8"/>
<path transform="translate(1239,757)" d="m0 0 36 4 27 4v6h-9l-42-5-13-3-1-2z" fill="#A49486"/>
<path transform="translate(1241,736)" d="m0 0 12 1 47 8 6 2-1 4-15-1-44-6-6-2z" fill="#A49486"/>
<path transform="translate(839,469)" d="m0 0h13l-2 9-3 9-3 11h-6l1-8h-9l-2-2 1-5 6-9z" fill="#905350"/>
<path transform="translate(949,910)" d="m0 0h1v36l-1 67-2 66-2-2-1-33v-32l1-7 2-2v-91h2z" fill="#933D39"/>
<path transform="translate(640,873)" d="m0 0h1v19l-1 12h3l1-3h2v25l-2 32-5 2v-28l-1 23-2 4 2-49z" fill="#855456"/>
<path transform="translate(997,214)" d="m0 0 6 2 10 7v2l4 2 5 5 2 3-1 2h3l3 4v2h-2v2l4 1 1 2 4-1 6 6 2 9 5 11v13l-5-2-5-19-4-9v-2l-5-2-9-13-10-11-3-2-3-5-8-6z" fill="#BF8255"/>
<path transform="translate(1235,777)" d="m0 0h9l43 5 11 2 1 4-1 2-14-1-23-3-21-3-5-2z" fill="#A49486"/>
<path transform="translate(930,1125)" d="m0 0h3v14l-3 88-2 15-2 4-8 1-16-4v-1l24-1z" fill="#67ACA3"/>
<path transform="translate(422,833)" d="m0 0h24l8 1v3h6v2h12v1l-50 2h-16v-4h5v-2l3-2z" fill="#8F928F"/>
<path transform="translate(396,985)" d="m0 0h1l1 34-3 1-3 39-1 26-1 7-1 12-2-4-1-3v-17l3-21 3-40 2-26z" fill="#632E35"/>
<path transform="translate(630,835)" d="m0 0h13l-1 25-4 1-10-4 1-18z" fill="#89C3C2"/>
<path transform="translate(1245,717)" d="m0 0h8l23 4 9 1 16 4 7 1 1 4-2 1-56-9-7-2z" fill="#A49486"/>
<path transform="translate(397,1019)" d="m0 0h1l3 45v14l-4-4-1-6-4-9v-15l2-22z" fill="#943B37"/>
<path transform="translate(638,1088)" d="m0 0h1v33l-3 57-1 8h-8v-3h2l2-6 1-1 1-32 1-3 3-52z" fill="#683136"/>
<path transform="translate(1243,727)" d="m0 0 14 1 46 8 5 1v4h-10l-41-7-13-2-2-1z" fill="#A49486"/>
<path transform="translate(624,960)" d="m0 0 8 1 4 1v19l-1 5-10-1-3-2 1-22z" fill="#8BC5C5"/>
<path transform="translate(940,1030)" d="m0 0h1v33l-1 22h-1v-12h-7v-32l8 1z" fill="#87B7B6"/>
<path transform="translate(815,469)" d="m0 0h7l4 5v9l-3 5h-2l1 3 4 2v5l-1 1h-14l1-8 6-9-1-4-3-3v-5z" fill="#895655"/>
<path transform="translate(923,435)" d="m0 0h11l2 1v2l-21 7-31 7-19 2h-13v-1l31-5 25-7z" fill="#E47736"/>
<path transform="translate(774,475)" d="m0 0 5 1 4 8v2h2l1-11h5l-2 13-2 10h-4l-6-10-3 10-4 1 1-13 2-10z" fill="#764344"/>
<path transform="translate(1334,749)" d="m0 0 3 1 2 6v14l-8 7-3-1-3-8v-9l2-5z" fill="#C3AB99"/>
<path transform="translate(366,799)" d="m0 0h1l2 7 4 62v19h-2l-2-11v-17l-1-13-2-10-1-14-1-10v-9z" fill="#D9A680"/>
<path transform="translate(1272,511)" d="m0 0 8 1 9 1v2l9 2-1-3 13 3 3 3h10l9 3 8 4 9 2h7l12 6v1l-11-1-32-9-31-8-22-6z" fill="#C99D74"/>
<path transform="translate(690,782)" d="m0 0h2v36l-2 36-2 25-2 2-1-4 1-37 2-21 1-26z" fill="#E6B488"/>
<path transform="translate(1239,748)" d="m0 0 14 1 50 7 1 4-17-1-36-5-12-2z" fill="#A49486"/>
<path transform="translate(1246,707)" d="m0 0h7l27 5 16 3 14 3v3l-14-1-40-7-11-2z" fill="#A49486"/>
<path transform="translate(735,475)" d="m0 0h11l4 4v6l-5 6h-6v8h-6v-7l1-2z" fill="#99544D"/>
<path transform="translate(1247,698)" d="m0 0h8l53 9 5 2-2 3-14-2-31-5-18-3z" fill="#A49486"/>
<path transform="translate(497,372)" d="m0 0 6 2v5l-2 6h7l-1 5-4 6-1 1h-7l-3-5v-10l3-8z" fill="#FAF6F2"/>
<path transform="translate(858,475)" d="m0 0h5l-2 11 5-1 2-10h5l-2 11-2 13h-6l2-9-6 1-1 7-4 1v-12l3-11z" fill="#8C4844"/>
<path transform="translate(878,476)" d="m0 0h10l3 2v8l-2 2 1 7 1 4h-5l-3-10h-2l-1 9-5 1 1-9z" fill="#6A3539"/>
<path transform="translate(464,1058)" d="m0 0 64 5 49 3 9 1 1 3-32-2-29-1-7-2-18-1-13-2-23-2z" fill="#67ACA3"/>
<path transform="translate(1233,788)" d="m0 0h9l55 7v3l-3 1-52-6-9-2z" fill="#A49486"/>
<path transform="translate(787,346)" d="m0 0 8 2 12 7v2l-16 3h-7l-3-5-2-2-4-2z" fill="#766A65"/>
<path transform="translate(648,835)" d="m0 0h4v14l-3 62-2 15h-1v-21l1-20-1-4 2-19v-19l1-6z" fill="#6C3338"/>
<path transform="translate(940,1103)" d="m0 0h1v65h-2l1 5-2 32h-1v-62l2-39z" fill="#643339"/>
<path transform="translate(658,860)" d="m0 0h1l-1 29-3 62-3-3v-13l2-46 1-16 1-5h2z" fill="#D2A984"/>
<path transform="translate(696,680)" d="m0 0 4 2 1 4v7l-2 5v4l2 1h-10l-7-3 3-2 1-2 3 2v-3l-2-2-1-10 5-1h3z" fill="#CB4D27"/>
<path transform="translate(755,475)" d="m0 0h13l-1 6h-6v4h3v5h-6l1 3 5 1-1 5h-11v-7l2-6z" fill="#8D4E4B"/>
<path transform="translate(943,1253)" d="m0 0h1v41h-106v-1l36-1h59l4-2 1-2h2v-4h2l-1-5v-14z" fill="#622C33"/>
<path transform="translate(942,188)" d="m0 0h6v2l8 1 13 4 5 7 11 5 12 7 9 7 2 4-9-6-14-9-25-12-12-5-8-3z" fill="#E36A2F"/>
<path transform="translate(1236,769)" d="m0 0 16 1 48 6 1 3-20-1-31-4-13-2z" fill="#A49486"/>
<path transform="translate(1229,796)" d="m0 0 13 1 54 7v3h-8l-46-6-12-3z" fill="#A39386"/>
<path transform="translate(754,947)" d="m0 0h2l1 52v59h-1l-1-18-1-57-1-33z" fill="#E7B489"/>
<path transform="translate(759,1233)" d="m0 0 2 3 1 11v44l-1-2-3-1v-15l1-2v-6l-1-5-1-22z" fill="#E5B387"/>
<path transform="translate(647,835)" d="m0 0 3 2-1 6v19l-2 22 1 2-2 12-2-2v-11l1-17h-2l1-4v-24l1-4z" fill="#834B4E"/>
<path transform="translate(866,329)" d="m0 0h10l3 2v5l-4 4-3 1h-8l-4-3 1-6z" fill="#914A45"/>
<path transform="translate(939,326)" d="m0 0 3 2-3 2-40 8-2 1h-8l2-4 4-3h13l21-4 5-1z" fill="#81746D"/>
<path transform="translate(814,248)" d="m0 0h6l3 4h2v5l-5 1v-2h-4-9l-11-3-2-2 4-2z" fill="#E89035"/>
<path transform="translate(903,475)" d="m0 0h5l-1 5-1 1h-5l4 6v8l-5 4h-6l1-5h5l-3-7-2-2 1-6 2-3z" fill="#934B44"/>
<path transform="translate(896,181)" d="m0 0 27 1 17 3v2l3 1-1 1 6 3-3 1-14-4-14-3-19-3z" fill="#E88F34"/>
<path transform="translate(949,910)" d="m0 0h1v36l-1 67h-1l-1-69v-32h2z" fill="#A66759"/>
<path transform="translate(387,1100)" d="m0 0 4 8v11l1 17 2 9-1 17-2-3-1-4-3-45z" fill="#91413E"/>
<path transform="translate(641,1027)" d="m0 0h1v31l-2 41h-1l-1-11v-26l2-34z" fill="#6D3439"/>
<path transform="translate(1287,878)" d="m0 0h7l1 5-3 6-1 4-8-1-3-3 1-8z" fill="#943B37"/>
<path transform="translate(960,303)" d="m0 0 2 3 8 4 1 2v6l-4 5-3 2-16 3-4-1 5-3 2 1 1-3 1 2 10-2 1-8-1-3-7-2 4-2z" fill="#7A7470"/>
<path transform="translate(663,1201)" d="m0 0h1l1 6 3 2 2-1v18l-9-1 1-22z" fill="#D5A980"/>
<path transform="translate(615,392)" d="m0 0h3l4 11v5l-10 2h-4l-3-7-1-5 3 3v2l4 1 1-3h2v-7z" fill="#895859"/>
<path transform="translate(710,483)" d="m0 0 2 3 1 6 11 1v-2h2l-1-6 3-1 1 3-3 7-5 4-2 1h-8v-2l-3-1-1-2v-7h2z" fill="#9A4A42"/>
<path transform="translate(753,868)" d="m0 0h1l1 14v46l-2-2v-9l-1-10-1-3v-24l1-4v-7z" fill="#E9B68A"/>
<path transform="translate(411,381)" d="m0 0h1v11l-2 9-3 12-2 2h-5l1-7 2-2 1-2h2v-11l3-8h2z" fill="#8A5958"/>
<path transform="translate(506,449)" d="m0 0 2 2-1 6-5 24h-1l-2-6 1-15 3-9z" fill="#8F5F5D"/>
<path transform="translate(1041,260)" d="m0 0h2l6 13v13l-5-2-5-19-1-4z" fill="#BF8255"/>
<path transform="translate(653,940)" d="m0 0h1v32l-2 20h-2v-21l1-22 1-1z" fill="#D1A881"/>
<path transform="translate(454,451)" d="m0 0 5 2v9l-3 15-5-3 1-9z" fill="#FDFAF8"/>
<path transform="translate(936,914)" d="m0 0 2 2v22l-1 39-3-1 1-32z" fill="#67ABA2"/>
<path transform="translate(1023,240)" d="m0 0 6 1v2h-2v2l4 1 1 2 4-1 6 6v7l-4 1-3-5v-2l-5-2-7-10z" fill="#C48450"/>
<path transform="translate(376,932)" d="m0 0h1l3 47v15h-1v-13l-3-1-1-12 1-2 1-13h-2l-1-16h2z" fill="#CC9A77"/>
<path transform="translate(531,400)" d="m0 0h1v6l4-1 5 1 13 1 4-1 3-3v6l-1 1h-31l1-9z" fill="#946A66"/>
<path transform="translate(719,478)" d="m0 0h4v8l-4 6-4 1-2-1v-9l4-4z" fill="#F2E0D1"/>
<path transform="translate(815,469)" d="m0 0h7l4 5v9l-3 5-3 1-1-2 1-2h3v-6l-8-3-1-1v-5z" fill="#824F4F"/>
<path transform="translate(755,913)" d="m0 0h1l1 31v55h-1v-52h-2l-1-18 1-1z" fill="#C08E6E"/>
<path transform="translate(647,917)" d="m0 0h1v15l-2 39h-1l-1-13v-21l1-10 1-1z" fill="#74383B"/>
<path transform="translate(359,385)" d="m0 0h5l1 1v16l-1 1h-5l-1-17z" fill="#FBF9F7"/>
<path transform="translate(539,1188)" d="m0 0h71l-4 2h-19l-10 1h-7l-7-1-24-1z" fill="#E9B68A"/>
<path transform="translate(385,386)" d="m0 0 9 3-1 7-4 4-6-1v-8z" fill="#FBF8F6"/>
<path transform="translate(592,429)" d="m0 0h11v8l-2 1 1 6-1 1h-8l1-6 3-3v-5l-5-1z" fill="#855153"/>
<path transform="translate(665,1187)" d="m0 0 4 1v21h-3-2v-21z" fill="#FFC684"/>
<path transform="translate(868,475)" d="m0 0h5l-2 11-2 13h-6l1-4 2-5v-7z" fill="#703B3D"/>
<path transform="translate(1272,511)" d="m0 0 8 1 9 1v2l9 2-1-3 13 3 4 5-9-1-33-9z" fill="#C89C73"/>
<path transform="translate(882,480)" d="m0 0 6 1-1 4h1l3 1-2 2 1 7 1 4h-5l-3-10h-2z" fill="#71393B"/>
<path transform="translate(839,469)" d="m0 0h13l-1 4-2 1v-3l-8 1-3 1v4l4 1-6 2v2h-3l-1 4-3 1 1-5 4-7z" fill="#874E4B"/>
<path transform="translate(1375,531)" d="m0 0 4 1 1 7 1 2-1 3-2 1h-6l-2-5z" fill="#CAF6FC"/>
<path transform="translate(380 1e3)" d="m0 0h1l2 24 1 16v12h-1v-10h-2l-2-23z" fill="#CE9D79"/>
<path transform="translate(736,476)" d="m0 0h12l2 3v6l-4 5h-6v-2l5-5-1-3-7-1-1 2z" fill="#67383B"/>
<path transform="translate(786,475)" d="m0 0h5l-2 13-1 6-4 2-2-8 1-4v2h2z" fill="#6E373A"/>
<path transform="translate(645,1102)" d="m0 0h1v33l-2 18h-1v-33l1-4z" fill="#CBA179"/>
<path transform="translate(757,1074)" d="m0 0 2 4v37h-2l-1-18v-20z" fill="#DDAD82"/>
<path transform="translate(449,363)" d="m0 0h5l2 2v6l-4 5-5 1v-6z" fill="#F8F3EE"/>
<path transform="translate(847,479)" d="m0 0 1 4-4 15h-6l2-9h-5v-2h2v-2h3l2 3 3-3z" fill="#903E3B"/>
<path transform="translate(1405,260)" d="m0 0h5l-1 13-4 13h-1v-14z" fill="#BFE2E2"/>
<path transform="translate(1380,245)" d="m0 0h8 1l7 1 1 2v1 2h-3l-1 3-4 2-2-4-1-1-1-2-5-2z" fill="#CAECEE"/>
<path transform="translate(464,1058)" d="m0 0 52 4 3 2h-18l-13-2-23-2z" fill="#67ACA3"/>
<path transform="translate(950,858)" d="m0 0h1v9h-42l1-2 9-1h19l3 1h8z" fill="#EAB88D"/>
<path transform="translate(374,434)" d="m0 0h10v4l-6 1h-2v7l-2 2-2 7h-1v-10l2-5z" fill="#8A5859"/>
<path transform="translate(981,404)" d="m0 0h2v3l-9 6-11 6-8 4-3-1 6-4 9-5 11-8z" fill="#C4562D"/>
<path transform="translate(439,149)" d="m0 0 7 1v3h2l-1 7-2-4-2-2h-8l-16 2 2-2 11-4z" fill="#C3F5FB"/>
<path transform="translate(335,389)" d="m0 0 5 1 1 1-1 7-4 4h-4v-7l1-5z" fill="#FDF9F6"/>
<path transform="translate(614,344)" d="m0 0 4 1 3 3 3 6v8l-1 4h-2v-5l-1-1v-5l-3-1v-3l-2-1z" fill="#8A5757"/>
<path transform="translate(939,326)" d="m0 0 3 2-3 2-25 5h-5l4-3 9-3 12-2z" fill="#677070"/>
<path transform="translate(648,1041)" d="m0 0h1v32l-2 20h-1v-22z" fill="#CAA079"/>
<path transform="translate(495,431)" d="m0 0h15l2 1v2h-2l-1 2h-3v-2l-7 2-3 3h-2l-1 2v-8z" fill="#875456"/>
<path transform="translate(442,438)" d="m0 0 4 1 1 7-3 4h-2v2h-6l-2-2v-3l8-1z" fill="#FCE9D8"/>
<path transform="translate(819,490)" d="m0 0 6 2 1 1v5l-1 1h-14l1-3 4 1-1-4z" fill="#A45A4B"/>
<path transform="translate(745,358)" d="m0 0h4l1 4 10 1v2l-12 3-4-2-1-1v-5z" fill="#7A746D"/>
<path transform="translate(600,358)" d="m0 0 5 1 1 1v6l-5 5-4 1 2-11z" fill="#FAF9F6"/>
<path transform="translate(883,448)" d="m0 0h8l-3 3-13 2-10 1h-13v-1z" fill="#CE804F"/>
<path transform="translate(645,1072)" d="m0 0h1l1 15h1l-1 30-3-1v-18z" fill="#D2AA85"/>
<path transform="translate(787,346)" d="m0 0 5 2 4 4-2 1-2 4-3 1-2-5-4-2h-2v-2z" fill="#918F8D"/>
<path transform="translate(317,1149)" d="m0 0 4 1 1 4 17 1v1l-9 1-2 1h-10l-3-2 1-6z" fill="#FDFCFB"/>
<path transform="translate(374,348)" d="m0 0h16l-1 9-6-5h-6l-3 1-1 2v-6z" fill="#895556"/>
<path transform="translate(381,1044)" d="m0 0h2l1 10 1 23v13h-1l-2-23-1-4z" fill="#E9B68A"/>
<path transform="translate(972,202)" d="m0 0 9 3 11 6 11 7 5 5-1 2-12-9-16-9-7-4z" fill="#C77743"/>
<path transform="translate(648,886)" d="m0 0h1v25l-2 15h-1v-21l1-18z" fill="#6A3137"/>
<path transform="translate(755,475)" d="m0 0h13l-1 5h-7v5l-4-2z" fill="#8A4A45"/>
<path transform="translate(779,349)" d="m0 0h2v2l3-1 5 4v4h6l-4 2h-7l-3-5-2-2-4-2z" fill="#B27756"/>
<path transform="translate(534,345)" d="m0 0h6l-1 7 1 11-2-1v-2l-5-1z" fill="#895657"/>
<path transform="translate(838,479)" d="m0 0 3 1v4l-3 1-1 2h-2v2h5l-1 4v-3h-9l-2-2 1-4 1 2h2l1-4h3v-2z" fill="#A58177"/>
<path transform="translate(778,479)" d="m0 0h2l3 9 2 7 2-1-1 5-4-2-4-8z" fill="#643035"/>
<path transform="translate(896,181)" d="m0 0 27 1 17 3v1h-13l-1-1-13-1h-11l-6-2z" fill="#D28946"/>
<path transform="translate(237,1260)" d="m0 0 7 2v2l6 2-1 2h-6v2l-5 1 1-4h-2v-3l-3-1v-2z" fill="#DEEDEB"/>
<path transform="translate(649,862)" d="m0 0h1v30h-1l-2-7-1-4 2-18z" fill="#753538"/>
<path transform="translate(502,385)" d="m0 0h6l-1 5-4 6-1 1h-7l-1-2h6v-8z" fill="#F6E4D5"/>
<path transform="translate(795,250)" d="m0 0h14l5 2-3 3h-9l-8-3z" fill="#F99635"/>
<path transform="translate(638,877)" d="m0 0 2 1v13l-1 14-2 4v-30z" fill="#C4EEF3"/>
<path transform="translate(522,454)" d="m0 0h2l1 3 3 2 2 5 3 3 3 6-4-2-7-6-3-5z" fill="#875555"/>
<path transform="translate(644,958)" d="m0 0h1v36h-1l-1-7-1-5 1-23z" fill="#6B3338"/>
<path transform="translate(658,835)" d="m0 0h1v25l-1 8h-2v-14l1-18z" fill="#D0A47C"/>
<path transform="translate(476,474)" d="m0 0 7 1v4l-4 4h-5v-8z" fill="#FCF7F2"/>
<path transform="translate(479,431)" d="m0 0h3l-1 13-4-4-1-6h-8l1-2z" fill="#834E51"/>
<path transform="translate(644,886)" d="m0 0 1 3v8l1-7h1v15l-1-4-3 3h-2l1-14z" fill="#933B37"/>
<path transform="translate(932,1041)" d="m0 0 3 1v30h-3z" fill="#67ACA3"/>
<path transform="translate(636,933)" d="m0 0h1v19l-1 10-2-1-2-5 1-6 2-7z" fill="#C5EFF3"/>
<path transform="translate(339,367)" d="m0 0 5 1 1 4-2 4-4 2h-3l1-7z" fill="#F7F5F2"/>
<path transform="translate(658,860)" d="m0 0h1l-1 29-3-1v-15l1-5h2z" fill="#D0A985"/>
<path transform="translate(633,1040)" d="m0 0h1l1 17v12l-3 3v-17z" fill="#622C33"/>
<path transform="translate(903,475)" d="m0 0h5l-1 5-5 1-2-1-1 3-3 1 1-7z" fill="#734142"/>
<path transform="translate(898,444)" d="m0 0h12v2l-18 4-3-1-2-2z" fill="#C76032"/>
<path transform="translate(429,391)" d="m0 0h1v10l-1 7h2v-2h2v6l-1 2-5-1 1-18z" fill="#875253"/>
<path transform="translate(636,986)" d="m0 0h1l1 20-2 12-1 11h-1v-13z" fill="#622C33"/>
<path transform="translate(659,816)" d="m0 0h2v13l-1 17h-1l-1-11v-16z" fill="#CFA782"/>
<path transform="translate(652,985)" d="m0 0h1v11l-1 19-3-3v-16l1-4h2z" fill="#D1AC89"/>
<path transform="translate(343,435)" d="m0 0h4v9h-2l-1 5-3 2 1-11z" fill="#926563"/>
<path transform="translate(724,470)" d="m0 0 5 1 2 3v9h-2l-4-6v-3l-3-3z" fill="#8A5454"/>
<path transform="translate(1330,723)" d="m0 0h10l2 3-15 2v2l-4 1 5-7z" fill="#94908D"/>
<path transform="translate(1395,423)" d="m0 0 5 5 4 5-9-3-11-3v-1h5l1-2 5 3z" fill="#D0F1F3"/>
<path transform="translate(866,329)" d="m0 0 5 1 5 3v3l-3 1-5-3v3l-5-1 1-3h3z" fill="#BB4221"/>
<path transform="translate(642,872)" d="m0 0h1l1 15-3 17h-1v-12l1-19z" fill="#622C33"/>
<path transform="translate(451,397)" d="m0 0 5 5 1 5 3 1 2 4v3l-4-1-5-10-2-3z" fill="#8C5C5A"/>
<path transform="translate(940,186)" d="m0 0 9 1 21 6-1 2-6-1-15-4v-2l-8-1z" fill="#CA8D53"/>
<path transform="translate(373,885)" d="m0 0h1l1 16v13h-1v-10h-2l-1-17h2z" fill="#C79574"/>
<path transform="translate(391,433)" d="m0 0 1 3-2 10-4 2-1-9 3-2 1-3z" fill="#855153"/>
<path transform="translate(387,1100)" d="m0 0 4 8v7l-2 10h-1z" fill="#904340"/>
<path transform="translate(372,904)" d="m0 0h2l1 10v21h-1l-2-13z" fill="#E6B489"/>
<path transform="translate(230,1304)" d="m0 0h8l-4 1v2l-22 3 1-2z" fill="#777B79"/>
<path transform="translate(376,932)" d="m0 0h1l1 16v13h-1v-8h-2l-1-16h2z" fill="#C39071"/>
<path transform="translate(839,354)" d="m0 0h6l1 5-5 1v-2h-2l-1 3-3-2 1-3z" fill="#E78332"/>
<path transform="translate(382,1026)" d="m0 0h1l1 16v12h-1v-10h-2l-1-16h2z" fill="#C69373"/>
<path transform="translate(778,866)" d="m0 0m-10-1 10 2v1l-22 1-1 13h-1v-15l13-1z" fill="#E0AF84"/>
<path transform="translate(774,758)" d="m0 0 8 4v2h-10l-3-1 2-4z" fill="#E35D2D"/>
<path transform="translate(901,490)" d="m0 0 3 3-1 4-3 2h-6l1-5 5-1z" fill="#743E3F"/>
<path transform="translate(719,478)" d="m0 0h4v6l-5 2h-3l-1 3v-5z" fill="#FCFAF9"/>
<path transform="translate(861,308)" d="m0 0h5l-1 7-9-3v-3z" fill="#BB4221"/>
<path transform="translate(761,271)" d="m0 0 12 1v2l-4 2h-11l2-4z" fill="#EB8531"/>
<path transform="translate(708,478)" d="m0 0 3 3 4-1-2 10-2-4-1-1-1 2h-2v5h-1v-9z" fill="#9D6F65"/>
<path transform="translate(589,1059)" d="m0 0 11 2v2l3 1h-15l-1-3z" fill="#BEE2E3"/>
<path transform="translate(358,566)" d="m0 0h17v1l-19 2v1h-11v-1z" fill="#C3AC9A"/>
<path transform="translate(465,431)" d="m0 0h14v1l-10 1-1 7h-3l-1 2v-9z" fill="#976D67"/>
<path transform="translate(1201,683)" d="m0 0h7v2h-3l-3 9-1 7h-1v-13z" fill="#E5D4BE"/>
<path transform="translate(1256,493)" d="m0 0 4 1 2 1-1 4-1 2h-2v-2l-6-2 1-3z" fill="#C99D74"/>
<path transform="translate(736,476)" d="m0 0h12l1 2-2 4-6-3h-4l-1 2z" fill="#642E35"/>
<path transform="translate(1404,433)" d="m0 0h2l3 10 2 5-2-1v-2h-3l1 8-2-1v-2l-2-1 2-8z" fill="#C8F1F6"/>
<path transform="translate(439,435)" d="m0 0h4l-1 9h-3v-3l-4-1 2-4z" fill="#844F52"/>
<path transform="translate(1018,365)" d="m0 0 1 3h2l-2 5-3 3-5-1 6-8z" fill="#E89035"/>
<path transform="translate(819,490)" d="m0 0 6 2 1 1v5l-2-3-7 2-2-4z" fill="#AB7561"/>
<path transform="translate(711,474)" d="m0 0 5 1 1 5-7 2-1-4z" fill="#8A4B4B"/>
<path transform="translate(846,478)" d="m0 0 1 2-2 7-4 2-1-4-2-1h3l1-4 1-1z" fill="#865758"/>
<path transform="translate(981,404)" d="m0 0h2v3l-9 6-3-1 1-3 6-4z" fill="#D25E30"/>
<path transform="translate(650,999)" d="m0 0h1v22l-3 1v-9l1-1z" fill="#CFA37B"/>
<path transform="translate(778,257)" d="m0 0 1 3-14 9-2-1 10-8z" fill="#F09335"/>
<path transform="translate(568,1066)" d="m0 0h9l9 1 1 3-13-1v-2h-6z" fill="#77B8B3"/>
<path transform="translate(710,483)" d="m0 0 2 3 1 6 5 1-1 2-7-1-1-2v-7z" fill="#925653"/>
<path transform="translate(404,347)" d="m0 0h18l-1 2h-14l-2 4-3 1v-5z" fill="#9D7971"/>
<path transform="translate(463,349)" d="m0 0 5 1 4 4v6l-9-9z" fill="#875456"/>
<path transform="translate(1055,333)" d="m0 0 1 3-8 16-2 2 1-6z" fill="#BD8861"/>
<path transform="translate(992,212)" d="m0 0 5 2 9 7 2 4-9-6-7-5z" fill="#C65D31"/>
<path transform="translate(824,474)" d="m0 0h2v9l-3 5-3 1-1-2 1-2h3v-9z" fill="#6D3A3E"/>
<path transform="translate(850,479)" d="m0 0h2l1 2 2-1v7h-2v-2h-5l1-5z" fill="#FDFAF8"/>
<path transform="translate(835,476)" d="m0 0h1v6h-3l-1 4-3 1 1-5 2-4z" fill="#693237"/>
<path transform="translate(350,351)" d="m0 0 6 2 4 4 1 6-2-1-1-3-3-1-5-5z" fill="#844F52"/>
<path transform="translate(952,322)" d="m0 0 1 2 7-1 1 2-13 3-4-1 5-3 2 1z" fill="#677070"/>
<path transform="translate(919,182)" d="m0 0 16 2 5 1v1h-13l-1-1-7-1z" fill="#B48968"/>
<path transform="translate(577,1052)" d="m0 0 7 1 4 4-11-1-2-1v-2z" fill="#BEE2E3"/>
<path transform="translate(782,484)" d="m0 0 2 4h4v6l-4 2-2-8z" fill="#8C5B56"/>
<path transform="translate(882,480)" d="m0 0 6 1-1 4-3 3h-2z" fill="#E0CCBA"/>
<path transform="translate(814,489)" d="m0 0 4 1-1 3h-2l1 4-5-1 2-6z" fill="#904541"/>
<path transform="translate(741,480)" d="m0 0 5 1-2 5-4 1v-6z" fill="#E4D1C1"/>
<path transform="translate(472,371)" d="m0 0h6l-1 5-2 2-3-2z" fill="#FCFAF7"/>
<path transform="translate(769,359)" d="m0 0 6 1v2l-9 2h-5l3-3z" fill="#687070"/>
<path transform="translate(1049,349)" d="m0 0 1 3h21v1l-19 1-4 1v-5z" fill="#BFE1E2"/>
<path transform="translate(803,241)" d="m0 0h7l1 4h-9v-3z" fill="#DE692C"/>
<path transform="translate(389,1119)" d="m0 0h2l1 17-2 1-1-8z" fill="#943B37"/>
<path transform="translate(788 1e3)" d="m0 0h1l1 8 2 5h-5v-9z" fill="#C4F5FB"/>
<path transform="translate(407,348)" d="m0 0h14l-2 8h-1l-1-5-8-1-3-1z" fill="#824D51"/>
<path transform="translate(858,475)" d="m0 0h5l-1 5-1 3-3-1z" fill="#703D41"/>
<path transform="translate(914,439)" d="m0 0 3 1-3 3-4 1h-8l3-2z" fill="#EA792E"/>
<path transform="translate(560,403)" d="m0 0h1v6h-19v-1l15-1z" fill="#854E51"/>
<path transform="translate(896,330)" d="m0 0 16 1-4 2h-8l-5-1z" fill="#A05E4E"/>
<path transform="translate(1378,498)" d="m0 0 7 2-4 1-1 3h-3l-1 2 1-7z" fill="#CCF0F3"/>
<path transform="translate(898,444)" d="m0 0h12v2l-9 1-2-1-4-1z" fill="#D46531"/>
<path transform="translate(1439,1307)" d="m0 0 7 1v2l5-1v2h-10l-2-1z" fill="#CACEC5"/>
<path transform="translate(381,1044)" d="m0 0h2l1 15-3-4z" fill="#E5B388"/>
<path transform="translate(815,469)" d="m0 0 5 1-2 2 1 5-4-1-1-1v-5z" fill="#6B353B"/>
<path transform="translate(441,444)" d="m0 0 1 2-2 1h-6l1 4-2 2-1-2-4-2 4-1 3-3z" fill="#C1A58D"/>
<path transform="translate(864,330)" d="m0 0 4 1-1 2h-3l-1 4-3 1 1-6z" fill="#8F3C38"/>
<path transform="translate(339,470)" d="m0 0 2 4-1 7-1 5h-1v-14z" fill="#834D51"/>
<path transform="translate(781,342)" d="m0 0 5 1 5 3-4 1-6 2 1-2h2z" fill="#873C39"/>
<path transform="translate(895,332)" d="m0 0 11 1-4 2-7 1-2-2z" fill="#93908E"/>
<path transform="translate(342,450)" d="m0 0h2v8l-3 3v-10z" fill="#834D51"/>
<path transform="translate(594,384)" d="m0 0h2l3 6-1 2h-4z" fill="#F8F6F3"/>
<path transform="translate(861,337)" d="m0 0 12 2-1 2h-8l-3-2z" fill="#6E7373"/>
<path transform="translate(821,333)" d="m0 0v3l-7 3h-5l-1-2h8v-2z" fill="#9E3D31"/>
<path transform="translate(500,476)" d="m0 0h1v7l-2 4h-2v-5-3h2z" fill="#834E51"/>
<path transform="translate(468,408)" d="m0 0 4 1v4h-8l2-3 1-1z" fill="#875455"/>
<path transform="translate(451,397)" d="m0 0 5 5 1 5h-2l-4-6z" fill="#8D5E5E"/>
<path transform="translate(444,389)" d="m0 0h2l2 4v4h-4z" fill="#FAF6F2"/>
</svg>
