<!-- icon666.com - MILLIONS vector ICONS FREE --><svg version="1.1" id="Layer_1" xmlns="http://www.w3.org/2000/svg" xmlns:xlink="http://www.w3.org/1999/xlink" x="0px" y="0px" viewBox="0 0 511.999 511.999" style="enable-background:new 0 0 511.999 511.999;" xml:space="preserve"><path style="fill:#E5E5E5;" d="M285.255,461.164l-56.875-137.31c-0.808-1.951-2.358-3.501-4.309-4.309 c-1.951-0.809-4.142-0.809-6.094,0l-82.386,34.126c-41.913,17.36-61.887,65.583-44.527,107.495 c8.41,20.303,24.222,36.116,44.527,44.526c10.151,4.205,20.818,6.308,31.485,6.308c10.667,0,21.334-2.104,31.485-6.308 l82.385-34.126C285.009,469.884,286.938,465.226,285.255,461.164z"></path><g><rect x="131.876" y="402.235" transform="matrix(-0.3827 -0.9239 0.9239 -0.3827 -82.8663 765.0256)" style="fill:#51862D;" width="164.552" height="15.924"></rect><rect x="96.556" y="416.858" transform="matrix(-0.3827 -0.9239 0.9239 -0.3827 -145.212 752.6143)" style="fill:#51862D;" width="164.552" height="15.924"></rect></g><path style="fill:#FF1D25;" d="M422.681,349.085L338.18,145.081c-0.808-1.951-2.358-3.501-4.309-4.309 c-1.951-0.809-4.142-0.809-6.094,0l-156.693,64.905c-4.06,1.682-5.99,6.335-4.311,10.395L270.541,467.25 c0.807,1.953,2.357,3.505,4.309,4.314c0.977,0.406,2.013,0.607,3.05,0.607c1.036,0,2.071-0.202,3.047-0.606l109.849-45.5 c14.54-6.022,25.863-17.346,31.886-31.886C428.704,379.639,428.704,363.625,422.681,349.085z"></path><g><path style="fill:#FFFFFF;" d="M269.834,230.766c-3.124,0-6.088-1.851-7.359-4.917l-9.751-23.539 c-1.683-4.063,0.246-8.72,4.309-10.403c4.063-1.68,8.72,0.246,10.403,4.309l9.751,23.539c1.683,4.063-0.247,8.72-4.309,10.403 C271.882,230.571,270.849,230.766,269.834,230.766z"></path><path style="fill:#FFFFFF;" d="M235.223,302.557c-3.124,0-6.089-1.851-7.359-4.917l-9.75-23.539 c-1.683-4.063,0.246-8.72,4.309-10.403c4.064-1.681,8.72,0.246,10.403,4.309l9.75,23.539c1.683,4.063-0.246,8.72-4.309,10.403 C237.271,302.361,236.238,302.557,235.223,302.557z"></path><path style="fill:#FFFFFF;" d="M345.072,257.056c-3.124,0-6.088-1.851-7.359-4.917l-9.751-23.539 c-1.683-4.063,0.246-8.72,4.309-10.403c4.063-1.682,8.72,0.246,10.403,4.309l9.751,23.539c1.683,4.063-0.246,8.72-4.309,10.403 C347.118,256.86,346.086,257.056,345.072,257.056z"></path><path style="fill:#FFFFFF;" d="M302.983,233.122c-3.124,0-6.088-1.851-7.359-4.917l-9.75-23.539 c-1.683-4.063,0.246-8.72,4.309-10.403c4.062-1.683,8.719,0.246,10.403,4.309l9.75,23.539c1.683,4.063-0.246,8.72-4.309,10.403 C305.031,232.926,303.999,233.122,302.983,233.122z"></path><path style="fill:#FFFFFF;" d="M248.06,255.873c-3.124,0-6.089-1.851-7.359-4.917l-9.75-23.539 c-1.683-4.063,0.246-8.72,4.309-10.403c4.064-1.682,8.72,0.246,10.403,4.309l9.75,23.539c1.683,4.063-0.246,8.72-4.309,10.403 C250.106,255.678,249.074,255.873,248.06,255.873z"></path><path style="fill:#FFFFFF;" d="M309.647,326.884c-3.124,0-6.089-1.851-7.359-4.917l-9.751-23.539 c-1.683-4.063,0.246-8.72,4.309-10.403c4.062-1.681,8.721,0.246,10.403,4.309L317,315.873c1.683,4.063-0.246,8.72-4.309,10.403 C311.695,326.689,310.662,326.884,309.647,326.884z"></path><path style="fill:#FFFFFF;" d="M276.498,324.527c-3.124,0-6.089-1.851-7.359-4.917l-9.751-23.539 c-1.683-4.063,0.246-8.72,4.309-10.403c4.063-1.682,8.72,0.246,10.403,4.309l9.751,23.539c1.683,4.063-0.246,8.72-4.309,10.403 C278.545,324.332,277.512,324.527,276.498,324.527z"></path><path style="fill:#FFFFFF;" d="M331.421,301.777c-3.124,0-6.089-1.851-7.359-4.917l-9.751-23.539 c-1.683-4.063,0.246-8.72,4.309-10.403c4.062-1.683,8.721,0.246,10.403,4.309l9.751,23.539c1.683,4.063-0.246,8.72-4.309,10.403 C333.469,301.582,332.437,301.777,331.421,301.777z"></path><path style="fill:#FFFFFF;" d="M284.862,279.803c-2.684,0-5.367-0.529-7.922-1.587c-5.108-2.116-9.087-6.095-11.203-11.203 c-2.116-5.109-2.116-10.735,0-15.843c2.116-5.109,6.095-9.088,11.203-11.204c5.108-2.116,10.736-2.116,15.844,0.001 c5.108,2.116,9.087,6.095,11.203,11.203c4.368,10.545-0.658,22.679-11.203,27.046C290.23,279.275,287.546,279.803,284.862,279.803z M284.862,254.311c-0.619,0-1.239,0.122-1.828,0.366c-2.433,1.007-3.594,3.808-2.585,6.241c0.488,1.179,1.407,2.098,2.585,2.585 c1.181,0.488,2.478,0.488,3.656,0c2.433-1.009,3.594-3.808,2.585-6.241c-0.488-1.179-1.407-2.098-2.585-2.586 C286.101,254.434,285.481,254.311,284.862,254.311z"></path><path style="fill:#FFFFFF;" d="M328.514,451.863l-3.046-7.356c-24.976-60.301,3.761-129.678,64.061-154.656l7.356-3.047 l6.094,14.711l-7.356,3.047c-52.187,21.617-77.059,81.662-55.444,133.85l3.047,7.357L328.514,451.863z"></path></g><path style="fill:#BF1D23;" d="M319.568,73.425c-1.962,0-3.9-0.724-5.404-2.113L269.5,30.062c-1.995-1.842-2.913-4.574-2.436-7.248 c0.477-2.673,2.282-4.918,4.791-5.958l39.231-16.251c2.334-0.966,4.99-0.768,7.154,0.535c2.165,1.303,3.582,3.556,3.82,6.072 l5.433,57.501c0.31,3.285-1.437,6.421-4.395,7.884C321.975,73.154,320.766,73.425,319.568,73.425z M289.445,26.807l20.237,18.689 l-2.462-26.053L289.445,26.807z"></path><path style="fill:#E5E5E5;" d="M357.796,136.956l-30.876-74.54c-1.683-4.063-6.34-5.993-10.403-4.309l-196.158,81.25 c-1.951,0.808-3.501,2.358-4.309,4.309c-0.808,1.951-0.808,4.142,0,6.094l30.875,74.54c1.27,3.067,4.235,4.917,7.359,4.917 c1.016,0,2.048-0.196,3.044-0.608l196.158-81.25c1.951-0.808,3.501-2.358,4.309-4.309 C358.605,141.099,358.605,138.907,357.796,136.956z"></path><g><path style="fill:#51862D;" d="M205.861,158.523c-1.683-4.063-6.34-5.992-10.403-4.309l-8.337,3.453l-3.453-8.337 c-1.683-4.063-6.34-5.991-10.403-4.309c-4.063,1.683-5.992,6.341-4.309,10.403l3.453,8.337l-8.337,3.453 c-4.063,1.683-5.992,6.341-4.309,10.403c1.27,3.066,4.235,4.917,7.359,4.917c1.016,0,2.048-0.195,3.044-0.608l8.337-3.453 l3.453,8.337c1.27,3.066,4.235,4.917,7.359,4.917c1.016,0,2.048-0.195,3.044-0.608c4.063-1.683,5.992-6.341,4.309-10.403 l-3.453-8.337l8.337-3.453C205.614,167.244,207.544,162.586,205.861,158.523z"></path><path style="fill:#51862D;" d="M260.785,135.773c-1.684-4.063-6.342-5.992-10.403-4.309l-8.337,3.453l-3.453-8.337 c-1.683-4.063-6.34-5.99-10.403-4.309c-4.063,1.683-5.992,6.34-4.309,10.403l3.453,8.337l-8.337,3.453 c-4.063,1.683-5.992,6.341-4.309,10.403c1.271,3.066,4.235,4.917,7.359,4.917c1.016,0,2.048-0.195,3.044-0.608l8.337-3.453 l3.453,8.337c1.27,3.066,4.235,4.917,7.359,4.917c1.016,0,2.048-0.195,3.044-0.608c4.063-1.683,5.992-6.34,4.309-10.403 l-3.453-8.337l8.337-3.453C260.539,144.493,262.468,139.835,260.785,135.773z"></path><path style="fill:#51862D;" d="M315.709,113.022c-1.684-4.063-6.341-5.992-10.403-4.309l-8.337,3.453l-3.453-8.337 c-1.683-4.063-6.341-5.991-10.403-4.309c-4.063,1.683-5.992,6.34-4.309,10.403l3.453,8.337l-8.337,3.453 c-4.063,1.683-5.992,6.341-4.309,10.403c1.271,3.066,4.235,4.917,7.359,4.917c1.016,0,2.048-0.195,3.044-0.608l8.337-3.453 l3.453,8.337c1.27,3.066,4.235,4.917,7.359,4.917c1.016,0,2.048-0.195,3.044-0.608c4.063-1.683,5.992-6.34,4.309-10.403 l-3.453-8.337l8.337-3.453C315.462,121.742,317.391,117.085,315.709,113.022z"></path></g></svg>