<!-- icon666.com - MILLIONS vector ICONS FREE --><svg viewBox="0 0 64 64" xmlns="http://www.w3.org/2000/svg"><g id="Layer_3" data-name="Layer 3"><circle cx="32" cy="12" fill="#a97c50" r="11"></circle><path d="m32 1a11 11 0 0 1 0 22z" fill="#8b5e3c" style="fill: rgb(169, 124, 80);"></path><path d="m50.5 36h-2.93l3.3 16.92a8.386 8.386 0 0 1 .16 1.62 8.477 8.477 0 0 1 -6.88 8.3 8.159 8.159 0 0 1 -1.62.16 8.5 8.5 0 0 1 -8.34-6.85l-2.19-11.23-2.19 11.23a8.5 8.5 0 0 1 -8.34 6.85 8.233 8.233 0 0 1 -1.62-.16 8.477 8.477 0 0 1 -6.88-8.3 8.211 8.211 0 0 1 .16-1.61l3.31-16.93h-2.94a8.5 8.5 0 0 1 0-17h37a8.5 8.5 0 0 1 0 17z" fill="#a97c50"></path><path d="m50.5 36h-2.93l3.3 16.92a8.386 8.386 0 0 1 .16 1.62 8.477 8.477 0 0 1 -6.88 8.3 8.159 8.159 0 0 1 -1.62.16 8.5 8.5 0 0 1 -8.34-6.85l-2.19-11.23v-25.92h18.5a8.5 8.5 0 0 1 0 17z" fill="#8b5e3c" style="fill: rgb(169, 124, 80);"></path><path d="m15 19v17h-1.5c-.17 0-.33 0-.5-.01v-16.98c.17-.01.33-.01.5-.01z" fill="#f1f2f2"></path><path d="m51 19.01v16.98c-.17.01-.33.01-.5.01h-1.5v-17h1.5c.17 0 .33 0 .5.01z" fill="#e6e7e8"></path><path d="m30.16 54.37-.35 1.78a1.331 1.331 0 0 1 -.05.19l-16.29-5.15.38-1.96z" fill="#f1f2f2"></path><path d="m50.53 51.19-16.29 5.15a1.331 1.331 0 0 1 -.05-.19l-.35-1.78 16.31-5.15z" fill="#e6e7e8"></path><circle cx="28" cy="11" fill="#f1f2f2" r="1"></circle><circle cx="32" cy="26" fill="#f1f2f2" r="1"></circle><g fill="#e6e7e8"><path d="m32 25a1 1 0 0 1 0 2z" fill="#e6e7e8"></path><path d="m32 30a1 1 0 0 1 0 2z" fill="#e6e7e8"></path><path d="m32 35a1 1 0 0 1 0 2z" fill="#e6e7e8"></path></g><circle cx="32" cy="31" fill="#f1f2f2" r="1"></circle><circle cx="32" cy="36" fill="#f1f2f2" r="1"></circle><circle cx="36" cy="11" fill="#e6e7e8" r="1"></circle><path d="m32 17a4.448 4.448 0 0 1 -3.356-1.345 1 1 0 0 1 1.512-1.31 2.925 2.925 0 0 0 3.688 0 1 1 0 0 1 1.512 1.31 4.448 4.448 0 0 1 -3.356 1.345z" fill="#f1f2f2"></path><path d="m35.36 15.65a4.434 4.434 0 0 1 -3.36 1.35v-2a2.488 2.488 0 0 0 1.84-.65 1 1 0 1 1 1.52 1.3z" fill="#e6e7e8"></path></g></svg>