<!-- icon666.com - MILLIONS vector ICONS FREE --><svg version="1.1" id="Capa_1" xmlns="http://www.w3.org/2000/svg" xmlns:xlink="http://www.w3.org/1999/xlink" x="0px" y="0px" viewBox="0 0 512 512" style="enable-background:new 0 0 512 512;" xml:space="preserve"><polygon style="" points="461.416,49.375 434.583,35.958 416.53,72.063 388.332,77.703 388.332,0 358.332,0 358.332,35.626 311.798,27.871 306.866,57.463 358.332,66.04 358.332,92.921 327.545,164.758 355.119,176.575 384.011,109.161 436.801,98.603 " fill="#BD9B7B"></polygon><polygon style="" points="153.666,66.04 205.132,57.463 200.2,27.871 153.666,35.626 153.666,0 123.666,0 123.666,77.703 95.468,72.063 77.416,35.958 50.583,49.375 75.197,98.603 127.987,109.161 156.879,176.575 184.453,164.758 153.666,92.921 " fill="#CDB49C"></polygon><path style="" d="M356.149,168.926l-44.822,105.025l12.631,6.316c16.279,8.14,33.773,12.097,51.127,12.097 c29.619,0,58.818-11.537,80.783-33.503l15.926-15.925L356.149,168.926z" fill="#56412D"></path><path style="fill: rgb(172, 130, 90);" d="M40.206,242.935L56.13,258.86c21.968,21.968,51.162,33.503,80.784,33.503 c17.351,0,34.851-3.959,51.127-12.097l12.631-6.316L155.85,168.926L40.206,242.935z" fill="#816244"></path><path style="" d="M377.666,290.587V207H134.332v83.587c-27.576,24.371-42.666,55.752-42.666,89.079 c0,36.042,17.569,69.696,49.472,94.762C171.973,498.657,212.765,512,255.999,512s84.026-13.343,114.862-37.571 c31.902-25.066,49.471-58.72,49.471-94.762C420.332,346.339,405.242,314.958,377.666,290.587z" fill="#AC825A"></path><path style="" d="M408.929,119.383l-8.768-12.171V91.671l1.142-14.961c-4.502-0.344-110.663-8.417-144.657-8.417 c-67.622,0-122.637,55.014-122.637,122.636v15h245.273v-15c0-11.289-3.487-25.619-10.381-42.71L408.929,119.383z" fill="#FF4F19"></path><path style="fill: rgb(255, 79, 25);" d="M408.929,119.383l-8.768-12.171V91.671l1.142-14.961c-4.502-0.344-110.663-8.417-144.657-8.417 c-0.216,0-0.431,0.007-0.647,0.008v137.628h123.283v-15c0-11.289-3.487-25.619-10.381-42.71L408.929,119.383z" fill="#DC3910"></path><path style="" d="M415.61,64c-23.741,0-43.056,19.315-43.056,43.056s19.315,43.056,43.056,43.056 s43.055-19.314,43.055-43.056S439.351,64,415.61,64z" fill="#EFEFF0"></path><path style="" d="M415.61,150.111c23.741,0,43.055-19.314,43.055-43.056S439.351,64,415.61,64" fill="#DFDEE0"></path><path style="fill: rgb(172, 130, 90);" d="M377.666,290.587V207H255.999v305l0,0c43.234,0,84.026-13.343,114.862-37.571 c31.902-25.066,49.471-58.72,49.471-94.762C420.332,346.339,405.242,314.958,377.666,290.587z" fill="#816244"></path><rect x="117.33" y="170.67" style="" width="277.33" height="53.33" fill="#EFEFF0"></rect><rect x="256" y="170.67" style="" width="138.67" height="53.33" fill="#DFDEE0"></rect><rect x="194" y="258" style="" width="30" height="30" fill="#56412D"></rect><rect x="288" y="258" width="30" height="30" fill="#000000"></rect><ellipse style="" cx="256" cy="400" rx="85.33" ry="69.33" fill="#E1D2C3"></ellipse><path style="" d="M255.999,330.667c47.128,0,85.333,31.042,85.333,69.333s-38.205,69.333-85.333,69.333" fill="#CDB49C"></path><ellipse style="" cx="256" cy="389.33" rx="53.33" ry="37.33" fill="#FF4F19"></ellipse><path style="fill: rgb(255, 79, 25);" d="M255.999,352c29.455,0,53.333,16.715,53.333,37.333c0,20.619-23.878,37.333-53.333,37.333" fill="#DC3910"></path></svg>