<!-- icon666.com - MILLIONS vector ICONS FREE --><svg id="Capa_1" enable-background="new 0 0 512 512" viewBox="0 0 512 512" xmlns="http://www.w3.org/2000/svg"><g><g><g><path d="m235.05 152.982h195.786v66.786h-195.786z" fill="#64b9fc"></path><path d="m399.5 152.978h31.34v66.79h-31.34z" fill="#31a7fb"></path><path d="m235.05 152.982h195.786v26.934h-195.786z" fill="#31a7fb"></path><path d="m435.032 160.031h-204.177c-5.491 0-9.942-4.451-9.942-9.942v-17.39c0-5.491 4.451-9.942 9.942-9.942h204.177c5.491 0 9.942 4.451 9.942 9.942v17.39c0 5.491-4.451 9.942-9.942 9.942z" fill="#fddd45"></path><path d="m444.97 132.697v17.39c0 5.49-4.45 9.94-9.94 9.94h-29.13c5.49 0 9.95-4.45 9.95-9.94v-17.39c0-5.49-4.46-9.94-9.95-9.94h29.13c5.49.001 9.94 4.45 9.94 9.94z" fill="#f8c52d"></path><path d="m309.448 122.756h41.026v97.012h-41.026z" fill="#fb4a59"></path></g><g><g><g fill="#f82f40"><path d="m166.732 63.881c1.106-2.827 1.692-5.746 1.692-8.735 0-21.473-29.934-39.463-70.151-44.183-6.183-.726-11.623 4.105-11.623 10.33v42.587h80.082z"></path><path d="m176.084 63.881c-1.106-2.827-1.692-5.746-1.692-8.735 0-21.473 29.934-39.463 70.151-44.183 6.183-.726 11.623 4.105 11.623 10.33v42.587h-80.082z"></path></g><path d="m192.45 63.881h-42.084v-28.992c0-5.522 4.476-9.998 9.998-9.998h22.088c5.522 0 9.998 4.476 9.998 9.998z" fill="#fb4a59"></path><path d="m272.848 93.415v163.428c0 5.519-4.479 9.998-9.998 9.998h-176.886c-5.519 0-9.998-4.479-9.998-9.998v-163.428z" fill="#99d53b"></path><path d="m272.846 93.414v163.43c0 5.521-4.475 9.996-9.996 9.996h-31.505c5.511 0 9.996-4.475 9.996-9.996v-163.43z" fill="#8dc637"></path><path d="m75.966 93.415h196.882v27.085h-196.882z" fill="#8dc637"></path><path d="m277.067 100.504h-205.32c-5.522 0-9.998-4.476-9.998-9.998v-23.522c0-5.522 4.476-9.998 9.998-9.998h205.32c5.522 0 9.998 4.476 9.998 9.998v23.521c0 5.522-4.476 9.999-9.998 9.999z" fill="#d2f0a2"></path><path d="m287.065 66.987v23.521c0 5.521-4.475 9.996-9.996 9.996h-29.293c5.521 0 9.996-4.475 9.996-9.996v-23.521c0-5.521-4.475-10.006-9.996-10.006h29.293c5.521.001 9.996 4.486 9.996 10.006z" fill="#bcea73"></path><path d="m144.746 56.986h53.323v209.855h-53.323z" fill="#fb4a59"></path></g><path d="m146.327 400.113h37.005v88.582h-37.005z" fill="#fca863"></path><g><path d="m347.204 301.882h-181.893c-3.966 0-7.181-3.215-7.181-7.181v-69.679c0-3.966 3.215-7.181 7.181-7.181h181.893c3.966 0 7.181 3.215 7.181 7.181v69.679c0 3.966-3.215 7.181-7.181 7.181z" fill="#fddd45"></path><path d="m354.381 225.026v69.675c0 3.964-3.217 7.181-7.181 7.181h-32.474c3.964 0 7.181-3.217 7.181-7.181v-69.675c0-3.964-3.217-7.181-7.181-7.181h32.474c3.964 0 7.181 3.217 7.181 7.181z" fill="#f8c52d"></path><path d="m213.984 217.84h-48.673c-3.966 0-7.181 3.215-7.181 7.181v69.679c0 3.966 3.215 7.181 7.181 7.181h48.673z" fill="#31a7fb"></path></g><path d="m328.137 400.113h37.005v88.582h-37.005z" fill="#fca863"></path><path d="m146.327 400.113h37.005v47.124h-37.005z" fill="#fc9744"></path><path d="m328.137 400.113h37.005v47.124h-37.005z" fill="#fc9744"></path><g><path d="m412.849 501.105h-387.867c-9.655 0-17.482-7.827-17.482-17.482s7.827-17.482 17.482-17.482h387.867c31.257 0 56.686-25.43 56.686-56.686 0-9.655 7.827-17.482 17.482-17.482s17.482 7.827 17.482 17.482c.001 50.535-41.113 91.65-91.65 91.65z" fill="#fcb982"></path></g><g><path d="m454.754 228.398-4.343 37.873-10.433 91.087c-4.161 36.237-34.823 63.586-71.292 63.586h-226.446c-36.469 0-67.131-27.349-71.282-63.586l-18.674-162.944-4.343-37.873h64.501c74.019 0 134.03 60.011 134.03 134.03 0 2.676 1.081 5.09 2.838 6.837 1.747 1.757 4.171 2.838 6.837 2.838h88.088c4.727 0 8.756-3.414 9.544-8.07l6.332-37.54c2.555-15.149 15.674-26.238 31.036-26.238z" fill="#fb4a59"></path><path d="m454.754 228.398-4.343 37.873-10.433 91.087c-4.161 36.237-34.823 63.586-71.292 63.586h-45.983c36.469 0 67.131-27.349 71.292-63.586l10.433-91.087 4.343-37.873z" fill="#f82f40"></path><path d="m75.816 376.331c10.774 26.396 36.662 44.614 66.424 44.614h226.446c29.762 0 55.65-18.218 66.429-44.614z" fill="#99d53b"></path><path d="m389.132 376.331c-10.779 26.396-36.667 44.614-66.429 44.614h45.983c29.762 0 55.65-18.218 66.429-44.614z" fill="#8dc637"></path><path d="m454.754 228.398-4.343 37.873h-53.861l-5.423 32.207c-3.878 22.966-23.602 39.64-46.892 39.64h-88.088c-26.218 0-47.548-21.33-47.548-47.548 0-53.022-43.135-96.157-96.157-96.157h-60.158l-4.343-37.873h64.501c74.019 0 134.03 60.011 134.03 134.03 0 2.676 1.081 5.09 2.838 6.837 1.747 1.757 4.171 2.838 6.837 2.838h88.088c4.727 0 8.756-3.414 9.544-8.07l6.332-37.54c2.555-15.149 15.674-26.238 31.036-26.238h63.607z" fill="#f82f40"></path><g><path d="m344.234 317.92h-88.084c-15.082 0-27.351-12.269-27.351-27.351 0-64.157-52.196-116.353-116.354-116.353l-85.712-.001c-9.761 0-17.674-7.913-17.674-17.674s7.914-17.674 17.674-17.674l85.712.001c80.968 0 147.324 63.756 151.494 143.705h73.535l5.208-30.875c4.005-23.741 24.387-40.972 48.463-40.972h78.759c9.761 0 17.674 7.913 17.674 17.674s-7.913 17.674-17.674 17.674h-78.759c-6.76 0-12.482 4.838-13.607 11.504l-6.332 37.542c-2.23 13.21-13.573 22.8-26.972 22.8z" fill="#eff5f6"></path></g><g><path d="m487.577 228.398c0 9.766-7.918 17.674-17.674 17.674h-34.247c9.756 0 17.674-7.908 17.674-17.674s-7.918-17.674-17.674-17.674h34.247c9.756 0 17.674 7.908 17.674 17.674z" fill="#deecf0"></path></g></g></g></g><g><path d="m487.018 384.471c-13.775 0-24.982 11.207-24.982 24.982 0 27.121-22.065 49.187-49.186 49.187h-40.207v-30.297c38.539-1.899 70.344-31.407 74.782-70.127l11.993-104.645h10.485c13.881 0 25.174-11.293 25.174-25.174s-11.293-25.174-25.174-25.174h-31.568v-36.017c8.043-1.549 14.14-8.631 14.14-17.119v-17.391c0-9.618-7.825-17.442-17.442-17.442h-27.868c-4.142 0-7.5 3.357-7.5 7.5s3.358 7.5 7.5 7.5h27.868c1.347 0 2.442 1.096 2.442 2.442v17.391c0 1.347-1.096 2.442-2.442 2.442h-77.058v-22.275h15.529c4.142 0 7.5-3.357 7.5-7.5s-3.358-7.5-7.5-7.5h-93.157v-7.571c8.085-1.541 14.219-8.652 14.219-17.179v-23.52c0-9.648-7.85-17.498-17.498-17.498h-13.398v-28.188c0-5.107-2.189-9.982-6.006-13.376-3.82-3.396-8.921-4.998-13.996-4.403-20.331 2.382-38.741 8.148-52.317 16.33-2.612-1.552-5.649-2.459-8.901-2.459h-22.09c-3.251 0-6.287.908-8.898 2.461-13.565-8.182-31.977-13.948-52.313-16.33-5.072-.604-10.171 1.005-13.991 4.399-3.818 3.395-6.008 8.271-6.008 13.379v28.188h-7.402c-9.648 0-17.498 7.85-17.498 17.498v23.521c0 8.527 6.134 15.638 14.219 17.179v23.682h-41.736c-13.881 0-25.174 11.293-25.174 25.174 0 13.882 11.293 25.175 25.174 25.175h16.545l12.704 110.868c.438 3.825 3.682 6.647 7.442 6.647.285 0 .573-.017.863-.05 4.115-.472 7.069-4.189 6.597-8.305l-12.509-109.161h54.069c60.022 0 108.854 48.831 108.854 108.854 0 19.217 15.634 34.852 34.852 34.852h19.354c4.142 0 7.5-3.357 7.5-7.5s-3.358-7.5-7.5-7.5h-19.354c-10.946 0-19.852-8.905-19.852-19.852 0-68.293-55.561-123.854-123.854-123.854h-85.712c-5.61 0-10.174-4.564-10.174-10.175 0-5.609 4.564-10.174 10.174-10.174l85.712.001c76.755 0 140.009 60 144.004 136.596.208 3.985 3.5 7.109 7.49 7.109h73.535c3.661 0 6.787-2.643 7.396-6.253l5.208-30.875c3.394-20.118 20.666-34.72 41.067-34.72h78.759c5.61 0 10.174 4.564 10.174 10.174s-4.564 10.174-10.174 10.174h-78.759c-10.435 0-19.267 7.468-21.002 17.757l-6.333 37.542c-1.618 9.589-9.85 16.549-19.575 16.549h-35.07c-4.142 0-7.5 3.357-7.5 7.5s3.358 7.5 7.5 7.5h35.07c17.074 0 31.526-12.219 34.366-29.055l6.333-37.542c.513-3.043 3.125-5.251 6.211-5.251h53.176l-11.798 102.938c-.488 4.259-1.394 8.375-2.657 12.321h-348.803c-1.263-3.947-2.169-8.063-2.657-12.322l-3.709-32.366c-.472-4.116-4.194-7.078-8.305-6.598-4.115.472-7.069 4.189-6.597 8.305l3.709 32.366c4.457 38.902 36.542 68.502 75.325 70.15v30.275h-113.846c-13.775-.001-24.982 11.206-24.982 24.982s11.207 24.982 24.982 24.982h387.867c54.672 0 99.151-44.479 99.151-99.151 0-13.775-11.207-24.983-24.982-24.983zm-150.491-139.617h-71.562c-1.997-6.667-4.43-13.183-7.281-19.514h88.5c-4.369 5.7-7.684 12.293-9.657 19.514zm-56.181-77.323h21.602v42.81h-21.602zm62.628-37.275v80.085h-26.026v-80.085zm-41.026 0v22.275h-21.602v-22.275zm-22.383-63.272v23.521c0 1.377-1.121 2.498-2.498 2.498h-71.498v-28.517h71.498c1.377 0 2.498 1.121 2.498 2.498zm-127.319-2.498h38.323v87.389c-12.055-6.819-24.926-12.013-38.323-15.468zm93.172-46.07c1.131-.138 1.914.392 2.279.716.363.323.973 1.034.973 2.166v28.188h-48.601c-.04 0-.079.005-.119.006v-14.604c0-.876-.086-1.73-.211-2.572 11.692-6.893 27.733-11.797 45.679-13.9zm-85.058 13.972h22.09c1.378 0 2.5 1.121 2.5 2.5v14.598h-27.08v-14.598c0-1.378 1.117-2.5 2.49-2.5zm-66.21-11.09c0-1.133.61-1.845.974-2.168s1.14-.848 2.273-.713c17.956 2.104 34 7.009 45.683 13.903-.124.841-.21 1.694-.21 2.568v14.604c-.042-.001-.082-.006-.124-.006h-48.596zm-24.9 45.686c0-1.377 1.121-2.498 2.498-2.498h65.499v28.518h-65.499c-1.377 0-2.498-1.121-2.498-2.498zm14.218 64.383v-23.363h53.778v25.302c-8.143-1.277-16.428-1.939-24.802-1.939zm138.695 43.94c-5.255-5.005-10.803-9.603-16.594-13.798v-53.506h59.777v102.337h-15.406c-7.485-12.773-16.793-24.572-27.777-35.033zm48.735 99.765c-.497-5.129-1.248-10.205-2.229-15.218h65.029l-2.567 15.218zm87.076-61.169v-46.372h65.361v35.693h-32.191c-12.326 0-23.806 3.925-33.17 10.679zm-22.337 244.737v-30.195h22.005v30.195zm-15-30.195v30.195h-129.804v-30.195zm-232.524-44.614h334.7c-11.482 17.927-31.553 29.614-54.125 29.614h-226.45c-22.572 0-42.643-11.687-54.125-29.614zm65.715 44.614h22.005v30.195h-22.005zm259.021 65.16h-387.867c-5.504 0-9.982-4.479-9.982-9.982s4.478-9.982 9.982-9.982h387.867c35.392 0 64.186-28.794 64.186-64.187 0-5.504 4.478-9.982 9.982-9.982s9.983 4.478 9.983 9.982c0 46.401-37.75 84.151-84.151 84.151z"></path><path d="m139.01 265.048h.038c4.125 0 7.479-3.334 7.499-7.464l.013-2.713c.02-4.142-3.321-7.516-7.463-7.536-.013 0-.025 0-.038 0-4.125 0-7.479 3.334-7.499 7.464l-.013 2.713c-.021 4.141 3.321 7.515 7.463 7.536z"></path><path d="m131.461 291.125c-.02 4.142 3.321 7.516 7.463 7.536h.038c4.125 0 7.479-3.334 7.499-7.464l.013-2.713c.02-4.142-3.321-7.516-7.463-7.536-4.116-.016-7.517 3.32-7.537 7.464z"></path><path d="m157.17 280.547h.036c4.125 0 7.479-3.335 7.499-7.465.019-4.143-3.323-7.516-7.465-7.535l-2.719-.013c-.012 0-.024 0-.036 0-4.125 0-7.479 3.335-7.499 7.465-.019 4.143 3.323 7.516 7.465 7.535z"></path><path d="m123.5 280.462h.036c4.125 0 7.479-3.335 7.499-7.465.019-4.143-3.323-7.516-7.465-7.535l-2.719-.013c-.012 0-.024 0-.036 0-4.125 0-7.479 3.335-7.499 7.465-.019 4.143 3.323 7.516 7.465 7.535z"></path></g></g></svg>